G04 #@! TF.GenerationSoftware,KiCad,Pcbnew,7.0.7*
G04 #@! TF.CreationDate,2023-09-02T23:49:02-04:00*
G04 #@! TF.ProjectId,sfp-snoop2,7366702d-736e-46f6-9f70-322e6b696361,rev?*
G04 #@! TF.SameCoordinates,Original*
G04 #@! TF.FileFunction,Copper,L1,Top*
G04 #@! TF.FilePolarity,Positive*
%FSLAX46Y46*%
G04 Gerber Fmt 4.6, Leading zero omitted, Abs format (unit mm)*
G04 Created by KiCad (PCBNEW 7.0.7) date 2023-09-02 23:49:02*
%MOMM*%
%LPD*%
G01*
G04 APERTURE LIST*
G04 Aperture macros list*
%AMRoundRect*
0 Rectangle with rounded corners*
0 $1 Rounding radius*
0 $2 $3 $4 $5 $6 $7 $8 $9 X,Y pos of 4 corners*
0 Add a 4 corners polygon primitive as box body*
4,1,4,$2,$3,$4,$5,$6,$7,$8,$9,$2,$3,0*
0 Add four circle primitives for the rounded corners*
1,1,$1+$1,$2,$3*
1,1,$1+$1,$4,$5*
1,1,$1+$1,$6,$7*
1,1,$1+$1,$8,$9*
0 Add four rect primitives between the rounded corners*
20,1,$1+$1,$2,$3,$4,$5,0*
20,1,$1+$1,$4,$5,$6,$7,0*
20,1,$1+$1,$6,$7,$8,$9,0*
20,1,$1+$1,$8,$9,$2,$3,0*%
G04 Aperture macros list end*
G04 #@! TA.AperFunction,ComponentPad*
%ADD10C,1.700000*%
G04 #@! TD*
G04 #@! TA.AperFunction,ComponentPad*
%ADD11O,1.700000X1.700000*%
G04 #@! TD*
G04 #@! TA.AperFunction,ComponentPad*
%ADD12R,1.700000X1.700000*%
G04 #@! TD*
G04 #@! TA.AperFunction,SMDPad,CuDef*
%ADD13RoundRect,0.225000X0.250000X-0.225000X0.250000X0.225000X-0.250000X0.225000X-0.250000X-0.225000X0*%
G04 #@! TD*
G04 #@! TA.AperFunction,SMDPad,CuDef*
%ADD14R,0.500000X2.000000*%
G04 #@! TD*
G04 #@! TA.AperFunction,ComponentPad*
%ADD15C,1.350000*%
G04 #@! TD*
G04 #@! TA.AperFunction,SMDPad,CuDef*
%ADD16RoundRect,0.250000X-0.650000X0.325000X-0.650000X-0.325000X0.650000X-0.325000X0.650000X0.325000X0*%
G04 #@! TD*
G04 #@! TA.AperFunction,SMDPad,CuDef*
%ADD17RoundRect,0.150000X-0.150000X0.512500X-0.150000X-0.512500X0.150000X-0.512500X0.150000X0.512500X0*%
G04 #@! TD*
G04 #@! TA.AperFunction,SMDPad,CuDef*
%ADD18RoundRect,0.250000X0.650000X-0.325000X0.650000X0.325000X-0.650000X0.325000X-0.650000X-0.325000X0*%
G04 #@! TD*
G04 #@! TA.AperFunction,SMDPad,CuDef*
%ADD19R,1.500000X2.000000*%
G04 #@! TD*
G04 #@! TA.AperFunction,SMDPad,CuDef*
%ADD20R,3.800000X2.000000*%
G04 #@! TD*
G04 #@! TA.AperFunction,ViaPad*
%ADD21C,0.800000*%
G04 #@! TD*
G04 #@! TA.AperFunction,ViaPad*
%ADD22C,2.159000*%
G04 #@! TD*
G04 #@! TA.AperFunction,Conductor*
%ADD23C,0.254000*%
G04 #@! TD*
G04 #@! TA.AperFunction,Conductor*
%ADD24C,0.508000*%
G04 #@! TD*
G04 #@! TA.AperFunction,Conductor*
%ADD25C,0.381000*%
G04 #@! TD*
G04 #@! TA.AperFunction,Conductor*
%ADD26C,0.889000*%
G04 #@! TD*
G04 #@! TA.AperFunction,Conductor*
%ADD27C,1.016000*%
G04 #@! TD*
G04 APERTURE END LIST*
D10*
X147320000Y-63500000D03*
D11*
X147320000Y-66040000D03*
X147320000Y-68580000D03*
X147320000Y-71120000D03*
X147320000Y-73660000D03*
X147320000Y-76200000D03*
X147320000Y-78740000D03*
X147320000Y-81280000D03*
X147320000Y-83820000D03*
X147320000Y-86360000D03*
X147320000Y-88900000D03*
X147320000Y-91440000D03*
X147320000Y-93980000D03*
X147320000Y-96520000D03*
X147320000Y-99060000D03*
X147320000Y-101600000D03*
X147320000Y-104140000D03*
X147320000Y-106680000D03*
X147320000Y-109220000D03*
D12*
X147320000Y-111760000D03*
D13*
X144729200Y-71158400D03*
X144729200Y-69608400D03*
D14*
X135025000Y-83475000D03*
X135825000Y-83475000D03*
X136625000Y-83475000D03*
X137425000Y-83475000D03*
X138225000Y-83475000D03*
X139025000Y-83475000D03*
X139825000Y-83475000D03*
X140625000Y-83475000D03*
X141425000Y-83475000D03*
X142225000Y-83475000D03*
X141825000Y-75275000D03*
X141025000Y-75275000D03*
X140225000Y-75275000D03*
X139425000Y-75275000D03*
X138625000Y-75275000D03*
X137825000Y-75275000D03*
X137025000Y-75275000D03*
X136225000Y-75275000D03*
X135425000Y-75275000D03*
X134625000Y-75275000D03*
D15*
X131300000Y-110275000D03*
X139875000Y-110275000D03*
X145550000Y-105275000D03*
X131300000Y-100275000D03*
X145550000Y-95275000D03*
X131300000Y-90275000D03*
X136975000Y-90275000D03*
X142375000Y-90275000D03*
X131300000Y-87475000D03*
X145550000Y-87475000D03*
X145550000Y-85275000D03*
X131300000Y-82775000D03*
X145550000Y-82775000D03*
X131300000Y-80275000D03*
X131300000Y-77775000D03*
X145550000Y-77775000D03*
X145550000Y-75275000D03*
X133625000Y-73175000D03*
X138425000Y-73175000D03*
X143225000Y-73175000D03*
D12*
X129540000Y-63500000D03*
D11*
X129540000Y-66040000D03*
X129540000Y-68580000D03*
X129540000Y-71120000D03*
X129540000Y-73660000D03*
X129540000Y-76200000D03*
X129540000Y-78740000D03*
X129540000Y-81280000D03*
X129540000Y-83820000D03*
X129540000Y-86360000D03*
X129540000Y-88900000D03*
X129540000Y-91440000D03*
X129540000Y-93980000D03*
X129540000Y-96520000D03*
X129540000Y-99060000D03*
X129540000Y-101600000D03*
X129540000Y-104140000D03*
X129540000Y-106680000D03*
X129540000Y-109220000D03*
X129540000Y-111760000D03*
D16*
X142010000Y-63095000D03*
X142010000Y-66045000D03*
X132460000Y-63095000D03*
X132460000Y-66045000D03*
D17*
X143190000Y-68687100D03*
X142240000Y-68687100D03*
X141290000Y-68687100D03*
X141290000Y-70962100D03*
X143190000Y-70962100D03*
D18*
X144340000Y-66045000D03*
X144340000Y-63095000D03*
D19*
X139525000Y-63520000D03*
X137225000Y-63520000D03*
D20*
X137225000Y-69820000D03*
D19*
X134925000Y-63520000D03*
D21*
X141290000Y-67538600D03*
X140625000Y-80619600D03*
X139425000Y-80619600D03*
X135825000Y-80619600D03*
X137025000Y-80619600D03*
X137825000Y-86995000D03*
X139025000Y-86995000D03*
X136625000Y-86995000D03*
X140462000Y-70962100D03*
X141425000Y-86995000D03*
X134431000Y-65607000D03*
D22*
X142722600Y-103530400D03*
X140563600Y-97053400D03*
X136245600Y-105689400D03*
X142722600Y-101371400D03*
X142722600Y-99212400D03*
X136245600Y-97053400D03*
D21*
X137225000Y-66750000D03*
X137225000Y-65607000D03*
X135077200Y-79629000D03*
D22*
X134086600Y-105689400D03*
X136245600Y-101371400D03*
X134086600Y-107848400D03*
X138404600Y-103530400D03*
D21*
X138622000Y-66750000D03*
D22*
X136245600Y-99212400D03*
X138404600Y-92735400D03*
X134086600Y-99212400D03*
X140563600Y-92735400D03*
D21*
X134431000Y-66750000D03*
D22*
X134086600Y-101371400D03*
X142722600Y-92735400D03*
X142722600Y-105689400D03*
D21*
X138622000Y-67893000D03*
X135828000Y-66750000D03*
D22*
X138404600Y-94894400D03*
X140563600Y-99212400D03*
D21*
X142875000Y-75275000D03*
X135559800Y-71424800D03*
X137225000Y-67893000D03*
X141579600Y-79375000D03*
X140019000Y-66750000D03*
D22*
X140563600Y-101371400D03*
X142722600Y-97053400D03*
X134086600Y-97053400D03*
X134086600Y-92735400D03*
D21*
X138622000Y-65607000D03*
X131546600Y-71424800D03*
D22*
X140563600Y-107848400D03*
X140563600Y-94894400D03*
X138404600Y-101371400D03*
X142722600Y-94894400D03*
D21*
X133959600Y-83475000D03*
D22*
X136245600Y-107848400D03*
D21*
X135828000Y-65607000D03*
D22*
X140563600Y-103530400D03*
D21*
X131546600Y-67919600D03*
D22*
X134086600Y-94894400D03*
X136245600Y-103530400D03*
X136245600Y-92735400D03*
X142722600Y-107848400D03*
X138404600Y-105689400D03*
D21*
X135828000Y-67893000D03*
D22*
X138404600Y-97053400D03*
X136245600Y-94894400D03*
D21*
X133959600Y-86995000D03*
X140019000Y-67893000D03*
D22*
X138404600Y-107848400D03*
D21*
X140019000Y-65607000D03*
X134431000Y-67893000D03*
X131546600Y-69596000D03*
D22*
X134086600Y-103530400D03*
X138404600Y-99212400D03*
X140563600Y-105689400D03*
D21*
X132943600Y-64185800D03*
X145338800Y-67538600D03*
X144340000Y-67538600D03*
X137425000Y-77180000D03*
X143332200Y-67538600D03*
X139025000Y-77180000D03*
X143484600Y-86995000D03*
D23*
X141290000Y-67538600D02*
X141290000Y-68687100D01*
X140625000Y-83475000D02*
X140625000Y-80619600D01*
X139825000Y-83475000D02*
X139825000Y-81019600D01*
X139825000Y-81019600D02*
X139425000Y-80619600D01*
X135825000Y-83475000D02*
X135825000Y-80619600D01*
X137425000Y-83475000D02*
X137425000Y-81019600D01*
X137425000Y-81019600D02*
X137025000Y-80619600D01*
X138225000Y-83475000D02*
X138225000Y-86595000D01*
X138225000Y-86595000D02*
X137825000Y-86995000D01*
X139025000Y-83475000D02*
X139025000Y-86995000D01*
X136625000Y-83475000D02*
X136625000Y-86995000D01*
X140462000Y-70962100D02*
X141290000Y-70962100D01*
X141425000Y-83475000D02*
X141425000Y-86995000D01*
D24*
X134625000Y-74086800D02*
X135102600Y-73609200D01*
D23*
X142367000Y-68814100D02*
X142240000Y-68687100D01*
D25*
X142240000Y-69824600D02*
X142240000Y-68687100D01*
D24*
X137025000Y-70020000D02*
X137225000Y-69820000D01*
X137025000Y-75275000D02*
X137025000Y-70020000D01*
X135025000Y-83475000D02*
X135025000Y-85929600D01*
D26*
X144729200Y-69608400D02*
X146291600Y-69608400D01*
D24*
X141825000Y-75275000D02*
X142875000Y-75275000D01*
X139852400Y-73660000D02*
X139852400Y-72186800D01*
X142240000Y-68687100D02*
X142240000Y-66275000D01*
D25*
X144513000Y-69824600D02*
X142240000Y-69824600D01*
D24*
X142240000Y-66275000D02*
X142010000Y-66045000D01*
X133959600Y-83475000D02*
X135025000Y-83475000D01*
X135102600Y-73609200D02*
X135102600Y-72034400D01*
X135025000Y-85929600D02*
X133959600Y-86995000D01*
X139425000Y-74087400D02*
X139852400Y-73660000D01*
X134625000Y-75275000D02*
X134625000Y-74086800D01*
D26*
X146291600Y-69608400D02*
X147320000Y-68580000D01*
D25*
X144729200Y-69608400D02*
X144513000Y-69824600D01*
D24*
X139425000Y-75275000D02*
X139425000Y-74087400D01*
D25*
X144729200Y-69608400D02*
X144487600Y-69850000D01*
D24*
X141825000Y-75275000D02*
X141825000Y-72229000D01*
D23*
X133702000Y-73602000D02*
X133625000Y-73602000D01*
D26*
X132460000Y-63095000D02*
X132460000Y-62165000D01*
X147320000Y-73660000D02*
X146177000Y-73660000D01*
X132950000Y-61675000D02*
X148475000Y-61675000D01*
X149075000Y-71905000D02*
X147320000Y-73660000D01*
X144729200Y-72212200D02*
X144729200Y-71158400D01*
X132460000Y-62165000D02*
X132950000Y-61675000D01*
D27*
X134925000Y-63520000D02*
X132885000Y-63520000D01*
D26*
X148475000Y-61675000D02*
X149075000Y-62275000D01*
X146177000Y-73660000D02*
X144729200Y-72212200D01*
X147320000Y-73660000D02*
X147290000Y-73660000D01*
X149075000Y-62275000D02*
X149075000Y-71905000D01*
D27*
X132885000Y-63520000D02*
X132460000Y-63095000D01*
X147320000Y-66040000D02*
X144345000Y-66040000D01*
X147320000Y-66040000D02*
X147320000Y-63500000D01*
D24*
X137825000Y-76780000D02*
X137425000Y-77180000D01*
X138625000Y-75275000D02*
X138625000Y-76780000D01*
X138625000Y-76780000D02*
X139025000Y-77180000D01*
X137825000Y-75275000D02*
X137825000Y-76780000D01*
X142225000Y-83475000D02*
X142225000Y-85735400D01*
X142225000Y-85735400D02*
X143484600Y-86995000D01*
G04 #@! TA.AperFunction,Conductor*
G36*
X144995230Y-65470647D02*
G01*
X145155000Y-65490440D01*
X145319999Y-65506860D01*
X145485000Y-65519259D01*
X145650000Y-65527639D01*
X145803611Y-65531698D01*
X145811789Y-65535342D01*
X145815000Y-65543394D01*
X145815000Y-66536717D01*
X145811573Y-66544990D01*
X145803725Y-66548409D01*
X145652251Y-66553911D01*
X145489503Y-66563843D01*
X145326756Y-66577796D01*
X145164008Y-66595768D01*
X145006488Y-66617053D01*
X144997830Y-66614764D01*
X144997267Y-66614307D01*
X144975831Y-66595768D01*
X144349123Y-66053755D01*
X144345109Y-66045753D01*
X144347929Y-66037253D01*
X144349033Y-66036138D01*
X144919805Y-65532000D01*
X144986049Y-65473489D01*
X144994517Y-65470581D01*
X144995230Y-65470647D01*
G37*
G04 #@! TD.AperFunction*
G04 #@! TA.AperFunction,Conductor*
G36*
X136183123Y-80767908D02*
G01*
X136189441Y-80774255D01*
X136189420Y-80783209D01*
X136189148Y-80783813D01*
X136118684Y-80929093D01*
X136118419Y-80929578D01*
X136052063Y-81038776D01*
X135999304Y-81134561D01*
X135999301Y-81134568D01*
X135964534Y-81250301D01*
X135964533Y-81250304D01*
X135952802Y-81408764D01*
X135948774Y-81416761D01*
X135941134Y-81419600D01*
X135708866Y-81419600D01*
X135700593Y-81416173D01*
X135697198Y-81408764D01*
X135685465Y-81250304D01*
X135685464Y-81250301D01*
X135650696Y-81134568D01*
X135650693Y-81134561D01*
X135597935Y-81038776D01*
X135531579Y-80929578D01*
X135531314Y-80929092D01*
X135460851Y-80783813D01*
X135460324Y-80774874D01*
X135466272Y-80768180D01*
X135466862Y-80767914D01*
X135820500Y-80620475D01*
X135829449Y-80620455D01*
X136183123Y-80767908D01*
G37*
G04 #@! TD.AperFunction*
G04 #@! TA.AperFunction,Conductor*
G36*
X140752202Y-82228427D02*
G01*
X140754866Y-82232545D01*
X140776600Y-82289759D01*
X140801203Y-82347146D01*
X140801203Y-82347145D01*
X140825797Y-82397135D01*
X140825800Y-82397140D01*
X140850400Y-82439760D01*
X140850404Y-82439766D01*
X140850403Y-82439765D01*
X140871952Y-82470634D01*
X140873877Y-82479379D01*
X140873709Y-82480166D01*
X140636351Y-83430550D01*
X140631022Y-83437746D01*
X140622165Y-83439066D01*
X140614969Y-83433737D01*
X140613649Y-83430550D01*
X140376290Y-82480166D01*
X140377610Y-82471309D01*
X140378037Y-82470649D01*
X140399600Y-82439760D01*
X140424200Y-82397140D01*
X140424203Y-82397135D01*
X140448797Y-82347146D01*
X140473400Y-82289759D01*
X140495134Y-82232545D01*
X140501275Y-82226028D01*
X140506071Y-82225000D01*
X140743929Y-82225000D01*
X140752202Y-82228427D01*
G37*
G04 #@! TD.AperFunction*
G04 #@! TA.AperFunction,Conductor*
G36*
X146992918Y-65259133D02*
G01*
X146999174Y-65265424D01*
X147319134Y-66035511D01*
X147319143Y-66044466D01*
X147319134Y-66044489D01*
X146999174Y-66814575D01*
X146992835Y-66820900D01*
X146983963Y-66820925D01*
X146842901Y-66763582D01*
X146670297Y-66693416D01*
X146432902Y-66611766D01*
X146432899Y-66611765D01*
X146432898Y-66611765D01*
X146220242Y-66568325D01*
X146070081Y-66557974D01*
X145970041Y-66551078D01*
X145949944Y-66550901D01*
X145631597Y-66548101D01*
X145623354Y-66544601D01*
X145620000Y-66536401D01*
X145620000Y-65543597D01*
X145623427Y-65535324D01*
X145631594Y-65531898D01*
X145970041Y-65528921D01*
X146220246Y-65511672D01*
X146432902Y-65468233D01*
X146670297Y-65386583D01*
X146983964Y-65259074D01*
X146992918Y-65259133D01*
G37*
G04 #@! TD.AperFunction*
G04 #@! TA.AperFunction,Conductor*
G36*
X135952202Y-82228427D02*
G01*
X135954866Y-82232545D01*
X135976600Y-82289759D01*
X136001203Y-82347146D01*
X136001203Y-82347145D01*
X136025797Y-82397135D01*
X136025800Y-82397140D01*
X136050400Y-82439760D01*
X136050404Y-82439766D01*
X136050403Y-82439765D01*
X136071952Y-82470634D01*
X136073877Y-82479379D01*
X136073709Y-82480166D01*
X135836351Y-83430550D01*
X135831022Y-83437746D01*
X135822165Y-83439066D01*
X135814969Y-83433737D01*
X135813649Y-83430550D01*
X135576290Y-82480166D01*
X135577610Y-82471309D01*
X135578037Y-82470649D01*
X135599600Y-82439760D01*
X135624200Y-82397140D01*
X135624203Y-82397135D01*
X135648797Y-82347146D01*
X135673400Y-82289759D01*
X135695134Y-82232545D01*
X135701275Y-82226028D01*
X135706071Y-82225000D01*
X135943929Y-82225000D01*
X135952202Y-82228427D01*
G37*
G04 #@! TD.AperFunction*
G04 #@! TA.AperFunction,Conductor*
G36*
X141435031Y-83516262D02*
G01*
X141436351Y-83519449D01*
X141673709Y-84469833D01*
X141672389Y-84478690D01*
X141671952Y-84479365D01*
X141650403Y-84510234D01*
X141650400Y-84510239D01*
X141630108Y-84545395D01*
X141625797Y-84552864D01*
X141601203Y-84602854D01*
X141601203Y-84602853D01*
X141576600Y-84660240D01*
X141554866Y-84717455D01*
X141548725Y-84723972D01*
X141543929Y-84725000D01*
X141306071Y-84725000D01*
X141297798Y-84721573D01*
X141295134Y-84717455D01*
X141273400Y-84660240D01*
X141248797Y-84602853D01*
X141248797Y-84602854D01*
X141224203Y-84552864D01*
X141219891Y-84545395D01*
X141199600Y-84510239D01*
X141178046Y-84479364D01*
X141176122Y-84470620D01*
X141176290Y-84469833D01*
X141413649Y-83519449D01*
X141418978Y-83512253D01*
X141427835Y-83510933D01*
X141435031Y-83516262D01*
G37*
G04 #@! TD.AperFunction*
G04 #@! TA.AperFunction,Conductor*
G36*
X139149407Y-86198427D02*
G01*
X139152802Y-86205836D01*
X139164533Y-86364294D01*
X139164534Y-86364297D01*
X139199301Y-86480030D01*
X139199304Y-86480037D01*
X139252063Y-86575823D01*
X139318419Y-86685019D01*
X139318684Y-86685505D01*
X139389148Y-86830786D01*
X139389675Y-86839725D01*
X139383727Y-86846419D01*
X139383123Y-86846691D01*
X139029502Y-86994123D01*
X139020548Y-86994144D01*
X139020498Y-86994123D01*
X138666876Y-86846691D01*
X138660558Y-86840344D01*
X138660579Y-86831390D01*
X138660844Y-86830801D01*
X138731321Y-86685492D01*
X138731579Y-86685019D01*
X138797935Y-86575823D01*
X138850693Y-86480037D01*
X138850694Y-86480036D01*
X138885465Y-86364294D01*
X138897197Y-86205836D01*
X138901226Y-86197839D01*
X138908866Y-86195000D01*
X139141134Y-86195000D01*
X139149407Y-86198427D01*
G37*
G04 #@! TD.AperFunction*
G04 #@! TA.AperFunction,Conductor*
G36*
X132901844Y-62168427D02*
G01*
X132905244Y-62175903D01*
X132968000Y-63095000D01*
X132460000Y-63096000D01*
X131952000Y-63095000D01*
X132014756Y-62175903D01*
X132018739Y-62167882D01*
X132026429Y-62165000D01*
X132893571Y-62165000D01*
X132901844Y-62168427D01*
G37*
G04 #@! TD.AperFunction*
G04 #@! TA.AperFunction,Conductor*
G36*
X142801831Y-91592699D02*
G01*
X142879070Y-91600305D01*
X142984861Y-91610725D01*
X143008691Y-91615464D01*
X143175924Y-91666194D01*
X143198372Y-91675493D01*
X143352487Y-91757869D01*
X143372698Y-91771374D01*
X143507779Y-91882232D01*
X143524967Y-91899420D01*
X143635825Y-92034501D01*
X143649330Y-92054712D01*
X143731703Y-92208819D01*
X143741006Y-92231278D01*
X143791733Y-92398502D01*
X143796475Y-92422343D01*
X143814501Y-92605367D01*
X143814800Y-92611448D01*
X143814800Y-107921551D01*
X143814501Y-107927632D01*
X143796475Y-108110656D01*
X143791733Y-108134497D01*
X143741006Y-108301721D01*
X143731703Y-108324180D01*
X143649330Y-108478287D01*
X143635825Y-108498498D01*
X143524967Y-108633579D01*
X143507779Y-108650767D01*
X143372698Y-108761625D01*
X143352487Y-108775130D01*
X143198380Y-108857503D01*
X143175921Y-108866806D01*
X143008697Y-108917533D01*
X142984856Y-108922275D01*
X142801832Y-108940301D01*
X142795751Y-108940600D01*
X134013449Y-108940600D01*
X134007368Y-108940301D01*
X133824343Y-108922275D01*
X133800502Y-108917533D01*
X133633278Y-108866806D01*
X133610822Y-108857504D01*
X133456712Y-108775130D01*
X133436501Y-108761625D01*
X133301420Y-108650767D01*
X133284232Y-108633579D01*
X133173374Y-108498498D01*
X133159869Y-108478287D01*
X133077493Y-108324172D01*
X133068193Y-108301721D01*
X133017464Y-108134491D01*
X133012725Y-108110663D01*
X132994697Y-107927619D01*
X132994400Y-107921571D01*
X132994400Y-92611427D01*
X132994697Y-92605381D01*
X133012725Y-92422334D01*
X133017464Y-92398510D01*
X133068195Y-92231271D01*
X133077491Y-92208830D01*
X133159872Y-92054706D01*
X133173374Y-92034501D01*
X133284236Y-91899415D01*
X133301415Y-91882236D01*
X133436502Y-91771372D01*
X133456706Y-91757872D01*
X133610830Y-91675491D01*
X133633271Y-91666195D01*
X133800510Y-91615464D01*
X133824336Y-91610725D01*
X133936340Y-91599694D01*
X134007369Y-91592699D01*
X134013449Y-91592400D01*
X142795751Y-91592400D01*
X142801831Y-91592699D01*
G37*
G04 #@! TD.AperFunction*
G04 #@! TA.AperFunction,Conductor*
G36*
X146546900Y-68259765D02*
G01*
X147316512Y-68578143D01*
X147322846Y-68584472D01*
X147322853Y-68584488D01*
X147641156Y-69355309D01*
X147641147Y-69364264D01*
X147635652Y-69370201D01*
X147253707Y-69564720D01*
X146985606Y-69751232D01*
X146754481Y-69906040D01*
X146752080Y-69907273D01*
X146470811Y-70012816D01*
X146467789Y-70013511D01*
X146058764Y-70051705D01*
X146050208Y-70049062D01*
X146046027Y-70041144D01*
X146045976Y-70040056D01*
X146045976Y-69173379D01*
X146049403Y-69165106D01*
X146055246Y-69161934D01*
X146276027Y-69115119D01*
X146384083Y-68981192D01*
X146425986Y-68780736D01*
X146457472Y-68533199D01*
X146457800Y-68531572D01*
X146531166Y-68267447D01*
X146536681Y-68260394D01*
X146545569Y-68259307D01*
X146546900Y-68259765D01*
G37*
G04 #@! TD.AperFunction*
G04 #@! TA.AperFunction,Conductor*
G36*
X138074736Y-76549112D02*
G01*
X138078163Y-76557385D01*
X138078135Y-76558192D01*
X138064878Y-76749981D01*
X138064467Y-76752349D01*
X138025336Y-76891133D01*
X138024447Y-76893372D01*
X137963949Y-77009264D01*
X137963810Y-77009515D01*
X137885645Y-77142868D01*
X137799328Y-77323098D01*
X137792664Y-77329079D01*
X137784324Y-77328864D01*
X137427176Y-77181895D01*
X137423340Y-77179334D01*
X137254119Y-77009515D01*
X137151909Y-76906944D01*
X137148498Y-76898665D01*
X137151939Y-76890398D01*
X137153410Y-76889157D01*
X137260792Y-76812822D01*
X137263460Y-76811405D01*
X137377796Y-76768594D01*
X137476505Y-76732710D01*
X137545219Y-76669876D01*
X137569064Y-76555007D01*
X137574102Y-76547603D01*
X137580521Y-76545685D01*
X138066463Y-76545685D01*
X138074736Y-76549112D01*
G37*
G04 #@! TD.AperFunction*
G04 #@! TA.AperFunction,Conductor*
G36*
X136635031Y-83516262D02*
G01*
X136636351Y-83519449D01*
X136873709Y-84469833D01*
X136872389Y-84478690D01*
X136871952Y-84479365D01*
X136850403Y-84510234D01*
X136850400Y-84510239D01*
X136830108Y-84545395D01*
X136825797Y-84552864D01*
X136801203Y-84602854D01*
X136801203Y-84602853D01*
X136776600Y-84660240D01*
X136754866Y-84717455D01*
X136748725Y-84723972D01*
X136743929Y-84725000D01*
X136506071Y-84725000D01*
X136497798Y-84721573D01*
X136495134Y-84717455D01*
X136473400Y-84660240D01*
X136448797Y-84602853D01*
X136448797Y-84602854D01*
X136424203Y-84552864D01*
X136419891Y-84545395D01*
X136399600Y-84510239D01*
X136378046Y-84479364D01*
X136376122Y-84470620D01*
X136376290Y-84469833D01*
X136613649Y-83519449D01*
X136618978Y-83512253D01*
X136627835Y-83510933D01*
X136635031Y-83516262D01*
G37*
G04 #@! TD.AperFunction*
G04 #@! TA.AperFunction,Conductor*
G36*
X147315028Y-72814352D02*
G01*
X147319834Y-72821907D01*
X147320011Y-72823922D01*
X147320705Y-73658366D01*
X147319810Y-73662865D01*
X146999104Y-74434743D01*
X146992765Y-74441068D01*
X146984065Y-74441161D01*
X146584435Y-74286013D01*
X146286428Y-74174573D01*
X146285946Y-74174367D01*
X146177648Y-74122190D01*
X146041390Y-74056543D01*
X146039683Y-74055535D01*
X145788175Y-73876518D01*
X145787588Y-73876041D01*
X145477741Y-73588711D01*
X145474005Y-73580573D01*
X145477118Y-73572176D01*
X145477396Y-73571887D01*
X146090760Y-72958523D01*
X146099032Y-72955097D01*
X146105390Y-72956976D01*
X146332612Y-73104174D01*
X146538538Y-73089886D01*
X146749140Y-72985244D01*
X146996888Y-72867206D01*
X146999888Y-72866248D01*
X147306287Y-72812409D01*
X147315028Y-72814352D01*
G37*
G04 #@! TD.AperFunction*
G04 #@! TA.AperFunction,Conductor*
G36*
X140625609Y-70597679D02*
G01*
X140626209Y-70597949D01*
X140771496Y-70668416D01*
X140771978Y-70668679D01*
X140881176Y-70735035D01*
X140976961Y-70787793D01*
X140976968Y-70787796D01*
X141092701Y-70822564D01*
X141092704Y-70822565D01*
X141108324Y-70823721D01*
X141251165Y-70834297D01*
X141259161Y-70838325D01*
X141262000Y-70845965D01*
X141262000Y-71078234D01*
X141258573Y-71086507D01*
X141251164Y-71089902D01*
X141092704Y-71101633D01*
X141092701Y-71101634D01*
X140976968Y-71136401D01*
X140976961Y-71136404D01*
X140881176Y-71189163D01*
X140771978Y-71255519D01*
X140771493Y-71255784D01*
X140626213Y-71326248D01*
X140617274Y-71326775D01*
X140610580Y-71320827D01*
X140610308Y-71320223D01*
X140583332Y-71255519D01*
X140462875Y-70966599D01*
X140462855Y-70957650D01*
X140610308Y-70603975D01*
X140616655Y-70597658D01*
X140625609Y-70597679D01*
G37*
G04 #@! TD.AperFunction*
G04 #@! TA.AperFunction,Conductor*
G36*
X131140200Y-69138800D02*
G01*
X129612031Y-69138800D01*
X129596757Y-69134315D01*
X129551002Y-69081511D01*
X129540000Y-69030942D01*
X129540000Y-68103777D01*
X129559439Y-68037565D01*
X129607634Y-67995800D01*
X131140200Y-67995800D01*
X131140200Y-69138800D01*
G37*
G04 #@! TD.AperFunction*
G04 #@! TA.AperFunction,Conductor*
G36*
X138235031Y-83516262D02*
G01*
X138236351Y-83519449D01*
X138473709Y-84469833D01*
X138472389Y-84478690D01*
X138471952Y-84479365D01*
X138450403Y-84510234D01*
X138450400Y-84510239D01*
X138430108Y-84545395D01*
X138425797Y-84552864D01*
X138401203Y-84602854D01*
X138401203Y-84602853D01*
X138376600Y-84660240D01*
X138354866Y-84717455D01*
X138348725Y-84723972D01*
X138343929Y-84725000D01*
X138106071Y-84725000D01*
X138097798Y-84721573D01*
X138095134Y-84717455D01*
X138073400Y-84660240D01*
X138048797Y-84602853D01*
X138048797Y-84602854D01*
X138024203Y-84552864D01*
X138019891Y-84545395D01*
X137999600Y-84510239D01*
X137978046Y-84479364D01*
X137976122Y-84470620D01*
X137976290Y-84469833D01*
X138213649Y-83519449D01*
X138218978Y-83512253D01*
X138227835Y-83510933D01*
X138235031Y-83516262D01*
G37*
G04 #@! TD.AperFunction*
G04 #@! TA.AperFunction,Conductor*
G36*
X141549407Y-86198427D02*
G01*
X141552802Y-86205836D01*
X141564533Y-86364294D01*
X141564534Y-86364297D01*
X141599301Y-86480030D01*
X141599304Y-86480037D01*
X141652063Y-86575823D01*
X141718419Y-86685019D01*
X141718684Y-86685505D01*
X141789148Y-86830786D01*
X141789675Y-86839725D01*
X141783727Y-86846419D01*
X141783123Y-86846691D01*
X141429502Y-86994123D01*
X141420548Y-86994144D01*
X141420498Y-86994123D01*
X141066876Y-86846691D01*
X141060558Y-86840344D01*
X141060579Y-86831390D01*
X141060844Y-86830801D01*
X141131321Y-86685492D01*
X141131579Y-86685019D01*
X141197935Y-86575823D01*
X141250693Y-86480037D01*
X141250694Y-86480036D01*
X141285465Y-86364294D01*
X141297197Y-86205836D01*
X141301226Y-86197839D01*
X141308866Y-86195000D01*
X141541134Y-86195000D01*
X141549407Y-86198427D01*
G37*
G04 #@! TD.AperFunction*
G04 #@! TA.AperFunction,Conductor*
G36*
X134181041Y-62776033D02*
G01*
X134547837Y-63142341D01*
X134917709Y-63511721D01*
X134921141Y-63519992D01*
X134917720Y-63528268D01*
X134917709Y-63528279D01*
X134181044Y-64263963D01*
X134172768Y-64267384D01*
X134167409Y-64266080D01*
X134025006Y-64192562D01*
X134025004Y-64192561D01*
X134025000Y-64192559D01*
X133875000Y-64129639D01*
X133803914Y-64106702D01*
X133725001Y-64081240D01*
X133683012Y-64071756D01*
X133575000Y-64047360D01*
X133574993Y-64047359D01*
X133435202Y-64029316D01*
X133427436Y-64024858D01*
X133425000Y-64017712D01*
X133425000Y-63022287D01*
X133428427Y-63014014D01*
X133435201Y-63010683D01*
X133575000Y-62992639D01*
X133725000Y-62958759D01*
X133875000Y-62910360D01*
X134025000Y-62847440D01*
X134167411Y-62773917D01*
X134176332Y-62773167D01*
X134181041Y-62776033D01*
G37*
G04 #@! TD.AperFunction*
G04 #@! TA.AperFunction,Conductor*
G36*
X138348477Y-86364112D02*
G01*
X138351904Y-86372385D01*
X138351904Y-86372480D01*
X138350375Y-86560972D01*
X138350362Y-86561313D01*
X138340852Y-86704071D01*
X138340751Y-86704836D01*
X138316421Y-86825923D01*
X138316222Y-86826661D01*
X138269977Y-86962134D01*
X138269862Y-86962444D01*
X138198972Y-87137177D01*
X138192686Y-87143554D01*
X138183731Y-87143620D01*
X138183678Y-87143598D01*
X137829503Y-86997853D01*
X137823156Y-86991535D01*
X137823141Y-86991500D01*
X137755047Y-86826661D01*
X137676854Y-86637375D01*
X137676863Y-86628422D01*
X137683201Y-86622096D01*
X137684272Y-86621714D01*
X137804928Y-86585221D01*
X137805511Y-86585077D01*
X137922009Y-86563021D01*
X137928694Y-86560972D01*
X138014756Y-86534592D01*
X138014756Y-86534591D01*
X138014758Y-86534591D01*
X138075933Y-86475319D01*
X138082129Y-86443127D01*
X138096174Y-86370173D01*
X138101103Y-86362697D01*
X138107663Y-86360685D01*
X138340204Y-86360685D01*
X138348477Y-86364112D01*
G37*
G04 #@! TD.AperFunction*
G04 #@! TA.AperFunction,Conductor*
G36*
X139952202Y-82228427D02*
G01*
X139954866Y-82232545D01*
X139976600Y-82289759D01*
X140001203Y-82347146D01*
X140001203Y-82347145D01*
X140025797Y-82397135D01*
X140025800Y-82397140D01*
X140050400Y-82439760D01*
X140050404Y-82439766D01*
X140050403Y-82439765D01*
X140071952Y-82470634D01*
X140073877Y-82479379D01*
X140073709Y-82480166D01*
X139836351Y-83430550D01*
X139831022Y-83437746D01*
X139822165Y-83439066D01*
X139814969Y-83433737D01*
X139813649Y-83430550D01*
X139576290Y-82480166D01*
X139577610Y-82471309D01*
X139578037Y-82470649D01*
X139599600Y-82439760D01*
X139624200Y-82397140D01*
X139624203Y-82397135D01*
X139648797Y-82347146D01*
X139673400Y-82289759D01*
X139695134Y-82232545D01*
X139701275Y-82226028D01*
X139706071Y-82225000D01*
X139943929Y-82225000D01*
X139952202Y-82228427D01*
G37*
G04 #@! TD.AperFunction*
G04 #@! TA.AperFunction,Conductor*
G36*
X133972138Y-83075950D02*
G01*
X134158861Y-83090105D01*
X134160910Y-83090445D01*
X134299489Y-83126325D01*
X134300010Y-83126486D01*
X134366000Y-83150311D01*
X134419448Y-83169608D01*
X134559297Y-83205816D01*
X134759600Y-83221000D01*
X134759600Y-83729000D01*
X134559297Y-83744184D01*
X134419448Y-83780392D01*
X134366000Y-83799688D01*
X134366000Y-83799687D01*
X134300010Y-83823513D01*
X134299489Y-83823674D01*
X134160910Y-83859554D01*
X134158861Y-83859894D01*
X133972152Y-83874048D01*
X133963644Y-83871256D01*
X133959601Y-83863265D01*
X133959568Y-83862424D01*
X133958600Y-83475000D01*
X133959568Y-83087587D01*
X133963016Y-83079324D01*
X133971297Y-83075918D01*
X133972138Y-83075950D01*
G37*
G04 #@! TD.AperFunction*
G04 #@! TA.AperFunction,Conductor*
G36*
X141416778Y-67728027D02*
G01*
X141419630Y-67732679D01*
X141449316Y-67823879D01*
X141481632Y-67912778D01*
X141513949Y-67991297D01*
X141513948Y-67991297D01*
X141528039Y-68021007D01*
X141546265Y-68059437D01*
X141546269Y-68059444D01*
X141575541Y-68111762D01*
X141576590Y-68120655D01*
X141575773Y-68122753D01*
X141300442Y-68667442D01*
X141293651Y-68673280D01*
X141284722Y-68672606D01*
X141279558Y-68667442D01*
X141004227Y-68122754D01*
X141003553Y-68113825D01*
X141004458Y-68111763D01*
X141033730Y-68059444D01*
X141033729Y-68059444D01*
X141033734Y-68059437D01*
X141051959Y-68021007D01*
X141066051Y-67991297D01*
X141066050Y-67991297D01*
X141098367Y-67912778D01*
X141130683Y-67823879D01*
X141160370Y-67732679D01*
X141166189Y-67725872D01*
X141171495Y-67724600D01*
X141408505Y-67724600D01*
X141416778Y-67728027D01*
G37*
G04 #@! TD.AperFunction*
G04 #@! TA.AperFunction,Conductor*
G36*
X142870955Y-74878743D02*
G01*
X142874998Y-74886734D01*
X142875031Y-74887589D01*
X142876000Y-75275000D01*
X142875031Y-75662410D01*
X142871583Y-75670675D01*
X142863302Y-75674081D01*
X142862447Y-75674048D01*
X142675737Y-75659894D01*
X142673688Y-75659554D01*
X142535108Y-75623673D01*
X142534587Y-75623512D01*
X142485400Y-75605753D01*
X142485400Y-75605754D01*
X142415150Y-75580392D01*
X142275302Y-75544184D01*
X142075000Y-75529000D01*
X142075000Y-75021000D01*
X142275302Y-75005816D01*
X142415150Y-74969607D01*
X142534591Y-74926484D01*
X142535108Y-74926325D01*
X142614158Y-74905857D01*
X142673690Y-74890444D01*
X142675735Y-74890105D01*
X142862448Y-74875951D01*
X142870955Y-74878743D01*
G37*
G04 #@! TD.AperFunction*
G04 #@! TA.AperFunction,Conductor*
G36*
X138877752Y-76549112D02*
G01*
X138880935Y-76555007D01*
X138904780Y-76669877D01*
X138963450Y-76723526D01*
X138973494Y-76732710D01*
X139024320Y-76751187D01*
X139072202Y-76768594D01*
X139186534Y-76811404D01*
X139189210Y-76812825D01*
X139296579Y-76889150D01*
X139301336Y-76896736D01*
X139299336Y-76905465D01*
X139298088Y-76906945D01*
X139026659Y-77179334D01*
X139022823Y-77181895D01*
X138665674Y-77328864D01*
X138656720Y-77328843D01*
X138650671Y-77323099D01*
X138564352Y-77142864D01*
X138486188Y-77009515D01*
X138486058Y-77009280D01*
X138425549Y-76893370D01*
X138424661Y-76891133D01*
X138424102Y-76889150D01*
X138385530Y-76752343D01*
X138385121Y-76749987D01*
X138371864Y-76558190D01*
X138374712Y-76549702D01*
X138382729Y-76545713D01*
X138383536Y-76545685D01*
X138869479Y-76545685D01*
X138877752Y-76549112D01*
G37*
G04 #@! TD.AperFunction*
G04 #@! TA.AperFunction,Conductor*
G36*
X139035031Y-83516262D02*
G01*
X139036351Y-83519449D01*
X139273709Y-84469833D01*
X139272389Y-84478690D01*
X139271952Y-84479365D01*
X139250403Y-84510234D01*
X139250400Y-84510239D01*
X139230108Y-84545395D01*
X139225797Y-84552864D01*
X139201203Y-84602854D01*
X139201203Y-84602853D01*
X139176600Y-84660240D01*
X139154866Y-84717455D01*
X139148725Y-84723972D01*
X139143929Y-84725000D01*
X138906071Y-84725000D01*
X138897798Y-84721573D01*
X138895134Y-84717455D01*
X138873400Y-84660240D01*
X138848797Y-84602853D01*
X138848797Y-84602854D01*
X138824203Y-84552864D01*
X138819891Y-84545395D01*
X138799600Y-84510239D01*
X138778046Y-84479364D01*
X138776122Y-84470620D01*
X138776290Y-84469833D01*
X139013649Y-83519449D01*
X139018978Y-83512253D01*
X139027835Y-83510933D01*
X139035031Y-83516262D01*
G37*
G04 #@! TD.AperFunction*
G04 #@! TA.AperFunction,Conductor*
G36*
X134353349Y-86257379D02*
G01*
X134697220Y-86601250D01*
X134700647Y-86609523D01*
X134697822Y-86617147D01*
X134573992Y-86761288D01*
X134573990Y-86761291D01*
X134500711Y-86885772D01*
X134500703Y-86885787D01*
X134446741Y-87000731D01*
X134446487Y-87001213D01*
X134373869Y-87124571D01*
X134372661Y-87126260D01*
X134250646Y-87268293D01*
X134242655Y-87272336D01*
X134234147Y-87269544D01*
X134233519Y-87268963D01*
X133958893Y-86995707D01*
X133685636Y-86721080D01*
X133682230Y-86712799D01*
X133685678Y-86704534D01*
X133686295Y-86703962D01*
X133828344Y-86581931D01*
X133830015Y-86580736D01*
X133953403Y-86508098D01*
X133953849Y-86507863D01*
X134068817Y-86453892D01*
X134193307Y-86380608D01*
X134337454Y-86256776D01*
X134345960Y-86253985D01*
X134353349Y-86257379D01*
G37*
G04 #@! TD.AperFunction*
G04 #@! TA.AperFunction,Conductor*
G36*
X145688239Y-67151885D02*
G01*
X145733994Y-67204689D01*
X145745200Y-67256200D01*
X145745200Y-68532200D01*
X145725515Y-68599239D01*
X145672711Y-68644994D01*
X145621200Y-68656200D01*
X144094199Y-68656200D01*
X143534119Y-69216281D01*
X143472796Y-69249766D01*
X143446438Y-69252600D01*
X143050800Y-69252600D01*
X142983761Y-69232915D01*
X142938006Y-69180111D01*
X142926800Y-69128600D01*
X142926800Y-67256200D01*
X142946485Y-67189161D01*
X142999289Y-67143406D01*
X143050800Y-67132200D01*
X145621200Y-67132200D01*
X145688239Y-67151885D01*
G37*
G04 #@! TD.AperFunction*
G04 #@! TA.AperFunction,Conductor*
G36*
X134818039Y-75044685D02*
G01*
X134863794Y-75097489D01*
X134875000Y-75149000D01*
X134875000Y-76656000D01*
X134879000Y-76660000D01*
X134880000Y-76660000D01*
X136605186Y-76660000D01*
X136672225Y-76679685D01*
X136717980Y-76732489D01*
X136727924Y-76801647D01*
X136718624Y-76832160D01*
X136718738Y-76832200D01*
X136717762Y-76834987D01*
X136716903Y-76837808D01*
X136716437Y-76838774D01*
X136658271Y-77005005D01*
X136638555Y-77179996D01*
X136638555Y-77180003D01*
X136658271Y-77354994D01*
X136716438Y-77521229D01*
X136810128Y-77670334D01*
X136810133Y-77670340D01*
X136934659Y-77794866D01*
X136934665Y-77794871D01*
X137083770Y-77888561D01*
X137141580Y-77908789D01*
X137250000Y-77946727D01*
X137250003Y-77946727D01*
X137250005Y-77946728D01*
X137424996Y-77966445D01*
X137425000Y-77966445D01*
X137425004Y-77966445D01*
X137599994Y-77946728D01*
X137599995Y-77946727D01*
X137600000Y-77946727D01*
X137766226Y-77888562D01*
X137766225Y-77888562D01*
X137766229Y-77888561D01*
X137915334Y-77794871D01*
X137915335Y-77794870D01*
X137915340Y-77794867D01*
X138039867Y-77670340D01*
X138120007Y-77542797D01*
X138172339Y-77496508D01*
X138241393Y-77485859D01*
X138305241Y-77514234D01*
X138329992Y-77542798D01*
X138410131Y-77670338D01*
X138534659Y-77794866D01*
X138534665Y-77794871D01*
X138683770Y-77888561D01*
X138741580Y-77908789D01*
X138850000Y-77946727D01*
X138850003Y-77946727D01*
X138850005Y-77946728D01*
X139024996Y-77966445D01*
X139025000Y-77966445D01*
X139025004Y-77966445D01*
X139199994Y-77946728D01*
X139199995Y-77946727D01*
X139200000Y-77946727D01*
X139366226Y-77888562D01*
X139366225Y-77888562D01*
X139366229Y-77888561D01*
X139515334Y-77794871D01*
X139515335Y-77794870D01*
X139515340Y-77794867D01*
X139639867Y-77670340D01*
X139639871Y-77670334D01*
X139733561Y-77521229D01*
X139745937Y-77485859D01*
X139791727Y-77355000D01*
X139811445Y-77180000D01*
X139791727Y-77005000D01*
X139733562Y-76838774D01*
X139733097Y-76837808D01*
X139732983Y-76837120D01*
X139731262Y-76832200D01*
X139732123Y-76831898D01*
X139721741Y-76768867D01*
X139749460Y-76704731D01*
X139807453Y-76665762D01*
X139844814Y-76660000D01*
X141571000Y-76660000D01*
X141575000Y-76656000D01*
X141575000Y-75149000D01*
X141594685Y-75081961D01*
X141647489Y-75036206D01*
X141699000Y-75025000D01*
X141951000Y-75025000D01*
X142018039Y-75044685D01*
X142063794Y-75097489D01*
X142075000Y-75149000D01*
X142075000Y-76656000D01*
X142076200Y-76657200D01*
X142361400Y-76657200D01*
X142428439Y-76676885D01*
X142474194Y-76729689D01*
X142485400Y-76781200D01*
X142485400Y-78615331D01*
X142465715Y-78682370D01*
X142457253Y-78693996D01*
X142368203Y-78802504D01*
X142368198Y-78802511D01*
X142272978Y-78980654D01*
X142214337Y-79173968D01*
X142194538Y-79375000D01*
X142214337Y-79576031D01*
X142272978Y-79769345D01*
X142368198Y-79947488D01*
X142368202Y-79947495D01*
X142370035Y-79949728D01*
X142457254Y-80056004D01*
X142484566Y-80120311D01*
X142485400Y-80134667D01*
X142485400Y-81964800D01*
X142465715Y-82031839D01*
X142412911Y-82077594D01*
X142361400Y-82088800D01*
X141257500Y-82088800D01*
X141190461Y-82069115D01*
X141144706Y-82016311D01*
X141133500Y-81964800D01*
X141133500Y-81471663D01*
X141137031Y-81442282D01*
X141138247Y-81437299D01*
X141145854Y-81334529D01*
X141150759Y-81308012D01*
X141153861Y-81297687D01*
X141164003Y-81273544D01*
X141186636Y-81232454D01*
X141251024Y-81126493D01*
X141255462Y-81118797D01*
X141260103Y-81110304D01*
X141264394Y-81101976D01*
X141328989Y-80968794D01*
X141332275Y-80962873D01*
X141333562Y-80960826D01*
X141334217Y-80958951D01*
X141336950Y-80952381D01*
X141339303Y-80947532D01*
X141339311Y-80947516D01*
X141341833Y-80941915D01*
X141341833Y-80941914D01*
X141341834Y-80941912D01*
X141354683Y-80909562D01*
X141355914Y-80902284D01*
X141361129Y-80882038D01*
X141391727Y-80794600D01*
X141411445Y-80619600D01*
X141399350Y-80512259D01*
X141391728Y-80444605D01*
X141391727Y-80444603D01*
X141391727Y-80444600D01*
X141344071Y-80308406D01*
X141333561Y-80278370D01*
X141239871Y-80129265D01*
X141239866Y-80129259D01*
X141115340Y-80004733D01*
X141115334Y-80004728D01*
X140966229Y-79911038D01*
X140799994Y-79852871D01*
X140625004Y-79833155D01*
X140624996Y-79833155D01*
X140450005Y-79852871D01*
X140283770Y-79911038D01*
X140134665Y-80004728D01*
X140134659Y-80004733D01*
X140112681Y-80026712D01*
X140051358Y-80060197D01*
X139981666Y-80055213D01*
X139937319Y-80026712D01*
X139915340Y-80004733D01*
X139915334Y-80004728D01*
X139766229Y-79911038D01*
X139599994Y-79852871D01*
X139425004Y-79833155D01*
X139424996Y-79833155D01*
X139250005Y-79852871D01*
X139083770Y-79911038D01*
X138934665Y-80004728D01*
X138934659Y-80004733D01*
X138810133Y-80129259D01*
X138810128Y-80129265D01*
X138716438Y-80278370D01*
X138658271Y-80444605D01*
X138638555Y-80619596D01*
X138638555Y-80619603D01*
X138658271Y-80794594D01*
X138716438Y-80960829D01*
X138810128Y-81109934D01*
X138810133Y-81109940D01*
X138934659Y-81234466D01*
X138934665Y-81234471D01*
X139083766Y-81328158D01*
X139083773Y-81328162D01*
X139101993Y-81334537D01*
X139143404Y-81349027D01*
X139150387Y-81351961D01*
X139172392Y-81362838D01*
X139228396Y-81379775D01*
X139286866Y-81418023D01*
X139315376Y-81481811D01*
X139316500Y-81498466D01*
X139316500Y-81964800D01*
X139296815Y-82031839D01*
X139244011Y-82077594D01*
X139192500Y-82088800D01*
X138057500Y-82088800D01*
X137990461Y-82069115D01*
X137944706Y-82016311D01*
X137933500Y-81964800D01*
X137933500Y-81279600D01*
X137935030Y-81260182D01*
X137938391Y-81238985D01*
X137936980Y-81065104D01*
X137937136Y-81060187D01*
X137937417Y-81056256D01*
X137937419Y-81056248D01*
X137936981Y-81050133D01*
X137936827Y-81046229D01*
X137936815Y-81044695D01*
X137936372Y-81033074D01*
X137933637Y-80992016D01*
X137933500Y-80987894D01*
X137933500Y-80983232D01*
X137933002Y-80979770D01*
X137932507Y-80975059D01*
X137926082Y-80878595D01*
X137924846Y-80866141D01*
X137923078Y-80852751D01*
X137920953Y-80839974D01*
X137911835Y-80794597D01*
X137894108Y-80706370D01*
X137891231Y-80694125D01*
X137887744Y-80681195D01*
X137884044Y-80669071D01*
X137834113Y-80522798D01*
X137832318Y-80517962D01*
X137830202Y-80512257D01*
X137757097Y-80332065D01*
X137746566Y-80308415D01*
X137746563Y-80308411D01*
X137746561Y-80308406D01*
X137745715Y-80306922D01*
X137736386Y-80286447D01*
X137733562Y-80278374D01*
X137639867Y-80129260D01*
X137515340Y-80004733D01*
X137515334Y-80004728D01*
X137366229Y-79911038D01*
X137199994Y-79852871D01*
X137025004Y-79833155D01*
X137024996Y-79833155D01*
X136850005Y-79852871D01*
X136683770Y-79911038D01*
X136534665Y-80004728D01*
X136534659Y-80004733D01*
X136512681Y-80026712D01*
X136451358Y-80060197D01*
X136381666Y-80055213D01*
X136337319Y-80026712D01*
X136315340Y-80004733D01*
X136315334Y-80004728D01*
X136166229Y-79911038D01*
X135999994Y-79852871D01*
X135825004Y-79833155D01*
X135824996Y-79833155D01*
X135650005Y-79852871D01*
X135483770Y-79911038D01*
X135334665Y-80004728D01*
X135334659Y-80004733D01*
X135210133Y-80129259D01*
X135210128Y-80129265D01*
X135116438Y-80278370D01*
X135058271Y-80444605D01*
X135038555Y-80619596D01*
X135038555Y-80619602D01*
X135058272Y-80794597D01*
X135110348Y-80943425D01*
X135111302Y-80946389D01*
X135113097Y-80952484D01*
X135113166Y-80952663D01*
X135115781Y-80958949D01*
X135116438Y-80960826D01*
X135116440Y-80960831D01*
X135117724Y-80962873D01*
X135121010Y-80968799D01*
X135185567Y-81101899D01*
X135189778Y-81110080D01*
X135194412Y-81118579D01*
X135198930Y-81126422D01*
X135263362Y-81232454D01*
X135283950Y-81269834D01*
X135285994Y-81273544D01*
X135296137Y-81297696D01*
X135299239Y-81308023D01*
X135304142Y-81334537D01*
X135311753Y-81437306D01*
X135312589Y-81446951D01*
X135313552Y-81452382D01*
X135313119Y-81452458D01*
X135316500Y-81477886D01*
X135316500Y-82001138D01*
X135296815Y-82068177D01*
X135280181Y-82088819D01*
X135275000Y-82094000D01*
X135275000Y-82190902D01*
X135255315Y-82257941D01*
X135255115Y-82258252D01*
X135253101Y-82261366D01*
X135253098Y-82261370D01*
X135234546Y-82293291D01*
X135234542Y-82293300D01*
X135195333Y-82414330D01*
X135195333Y-82414332D01*
X135194012Y-82423195D01*
X135191216Y-82446985D01*
X135201306Y-82573809D01*
X135271305Y-82854085D01*
X135275000Y-82884131D01*
X135275000Y-83601000D01*
X135255315Y-83668039D01*
X135202511Y-83713794D01*
X135151000Y-83725000D01*
X134899000Y-83725000D01*
X134831961Y-83705315D01*
X134786206Y-83652511D01*
X134775000Y-83601000D01*
X134775000Y-82094000D01*
X134773800Y-82092800D01*
X134772400Y-82092800D01*
X134490000Y-82092800D01*
X134422961Y-82073115D01*
X134377206Y-82020311D01*
X134366000Y-81968800D01*
X134366000Y-80139267D01*
X134385685Y-80072228D01*
X134394147Y-80060602D01*
X134394480Y-80060197D01*
X134485140Y-79949727D01*
X134580736Y-79770879D01*
X134639604Y-79576817D01*
X134659481Y-79375000D01*
X134639604Y-79173183D01*
X134580736Y-78979121D01*
X134580734Y-78979118D01*
X134580734Y-78979116D01*
X134485141Y-78800274D01*
X134485139Y-78800271D01*
X134394147Y-78689397D01*
X134366834Y-78625087D01*
X134366000Y-78610732D01*
X134366000Y-76716362D01*
X134375000Y-76685711D01*
X134375000Y-75149000D01*
X134394685Y-75081961D01*
X134447489Y-75036206D01*
X134499000Y-75025000D01*
X134751000Y-75025000D01*
X134818039Y-75044685D01*
G37*
G04 #@! TD.AperFunction*
G04 #@! TA.AperFunction,Conductor*
G36*
X145193039Y-62639685D02*
G01*
X145238794Y-62692489D01*
X145250000Y-62744000D01*
X145250000Y-63551000D01*
X145230315Y-63618039D01*
X145177511Y-63663794D01*
X145126000Y-63675000D01*
X141124999Y-63675000D01*
X140311319Y-64488681D01*
X140249996Y-64522166D01*
X140223638Y-64525000D01*
X138899000Y-64525000D01*
X138831961Y-64505315D01*
X138786206Y-64452511D01*
X138775000Y-64401000D01*
X138775000Y-62744000D01*
X138794685Y-62676961D01*
X138847489Y-62631206D01*
X138899000Y-62620000D01*
X145126000Y-62620000D01*
X145193039Y-62639685D01*
G37*
G04 #@! TD.AperFunction*
G04 #@! TA.AperFunction,Conductor*
G36*
X143106745Y-86256776D02*
G01*
X143180434Y-86320080D01*
X143250888Y-86380606D01*
X143250891Y-86380608D01*
X143375382Y-86453892D01*
X143490339Y-86507859D01*
X143490802Y-86508103D01*
X143614178Y-86580733D01*
X143615862Y-86581938D01*
X143757893Y-86703953D01*
X143761936Y-86711944D01*
X143759144Y-86720452D01*
X143758563Y-86721080D01*
X143485307Y-86995707D01*
X143210680Y-87268963D01*
X143202399Y-87272369D01*
X143194134Y-87268921D01*
X143193553Y-87268293D01*
X143071538Y-87126262D01*
X143070333Y-87124578D01*
X142997703Y-87001202D01*
X142997459Y-87000739D01*
X142943492Y-86885782D01*
X142870208Y-86761291D01*
X142870206Y-86761288D01*
X142809680Y-86690834D01*
X142746376Y-86617145D01*
X142743585Y-86608639D01*
X142746978Y-86601251D01*
X143090851Y-86257378D01*
X143099123Y-86253952D01*
X143106745Y-86256776D01*
G37*
G04 #@! TD.AperFunction*
G04 #@! TA.AperFunction,Conductor*
G36*
X148215826Y-72151664D02*
G01*
X148828335Y-72764173D01*
X148831762Y-72772446D01*
X148828554Y-72780495D01*
X148594082Y-73027866D01*
X148440767Y-73227122D01*
X148440763Y-73227128D01*
X148335510Y-73419838D01*
X148335495Y-73419869D01*
X148237324Y-73655959D01*
X148109696Y-73974308D01*
X148103436Y-73980712D01*
X148094482Y-73980814D01*
X148094370Y-73980768D01*
X147323785Y-73662562D01*
X147317447Y-73656238D01*
X146999231Y-72885628D01*
X146999240Y-72876674D01*
X147005579Y-72870349D01*
X147005668Y-72870312D01*
X147324040Y-72742674D01*
X147560137Y-72644499D01*
X147752880Y-72539228D01*
X147952135Y-72385914D01*
X148199507Y-72151443D01*
X148207866Y-72148241D01*
X148215826Y-72151664D01*
G37*
G04 #@! TD.AperFunction*
G04 #@! TA.AperFunction,Conductor*
G36*
X142494000Y-68687100D02*
G01*
X142430500Y-69195100D01*
X142049500Y-69195100D01*
X141986000Y-68687100D01*
X142240000Y-68686100D01*
X142494000Y-68687100D01*
G37*
G04 #@! TD.AperFunction*
G04 #@! TA.AperFunction,Conductor*
G36*
X141648123Y-67686908D02*
G01*
X141654441Y-67693255D01*
X141654420Y-67702209D01*
X141654148Y-67702813D01*
X141583684Y-67848093D01*
X141583419Y-67848578D01*
X141517063Y-67957776D01*
X141464304Y-68053561D01*
X141464301Y-68053568D01*
X141429534Y-68169301D01*
X141429533Y-68169304D01*
X141417802Y-68327764D01*
X141413774Y-68335761D01*
X141406134Y-68338600D01*
X141173866Y-68338600D01*
X141165593Y-68335173D01*
X141162198Y-68327764D01*
X141150465Y-68169304D01*
X141150464Y-68169301D01*
X141115696Y-68053568D01*
X141115693Y-68053561D01*
X141062935Y-67957776D01*
X140996579Y-67848578D01*
X140996314Y-67848092D01*
X140925851Y-67702813D01*
X140925324Y-67693874D01*
X140931272Y-67687180D01*
X140931862Y-67686914D01*
X141285500Y-67539475D01*
X141294449Y-67539455D01*
X141648123Y-67686908D01*
G37*
G04 #@! TD.AperFunction*
G04 #@! TA.AperFunction,Conductor*
G36*
X138082539Y-62520685D02*
G01*
X138128294Y-62573489D01*
X138139500Y-62625000D01*
X138139501Y-64584180D01*
X138142335Y-64620204D01*
X138187129Y-64774388D01*
X138187131Y-64774393D01*
X138268863Y-64912595D01*
X138268869Y-64912603D01*
X138382396Y-65026130D01*
X138382400Y-65026133D01*
X138382402Y-65026135D01*
X138520607Y-65107869D01*
X138528004Y-65110018D01*
X138674791Y-65152664D01*
X138674794Y-65152664D01*
X138674796Y-65152665D01*
X138686803Y-65153610D01*
X138710817Y-65155500D01*
X138710818Y-65155499D01*
X138710819Y-65155500D01*
X140339180Y-65155499D01*
X140375204Y-65152665D01*
X140451406Y-65130526D01*
X140521274Y-65130725D01*
X140579944Y-65168666D01*
X140608788Y-65232305D01*
X140610000Y-65249602D01*
X140610000Y-65588023D01*
X140609679Y-65594328D01*
X140600558Y-65683605D01*
X140608350Y-65699781D01*
X140610000Y-65719939D01*
X140610000Y-65795000D01*
X142267000Y-65795000D01*
X142334039Y-65814685D01*
X142379794Y-65867489D01*
X142391000Y-65919000D01*
X142391000Y-66302000D01*
X142371315Y-66369039D01*
X142318511Y-66414794D01*
X142267000Y-66426000D01*
X140602561Y-66426000D01*
X140612605Y-66524317D01*
X140612606Y-66524324D01*
X140668341Y-66692522D01*
X140668343Y-66692527D01*
X140755173Y-66833299D01*
X140773613Y-66900691D01*
X140752691Y-66967355D01*
X140737316Y-66986077D01*
X140675128Y-67048265D01*
X140581438Y-67197370D01*
X140523271Y-67363605D01*
X140503555Y-67538596D01*
X140503555Y-67538602D01*
X140523272Y-67713597D01*
X140575348Y-67862425D01*
X140576302Y-67865389D01*
X140578097Y-67871484D01*
X140578166Y-67871663D01*
X140580781Y-67877949D01*
X140581438Y-67879826D01*
X140581439Y-67879827D01*
X140581441Y-67879833D01*
X140582723Y-67881873D01*
X140586014Y-67887807D01*
X140615072Y-67947718D01*
X140626616Y-68016627D01*
X140618863Y-68047303D01*
X140618758Y-68047568D01*
X140618757Y-68047570D01*
X140614863Y-68080000D01*
X140608500Y-68132989D01*
X140608500Y-68132994D01*
X140608500Y-68132995D01*
X140608500Y-69241205D01*
X140613558Y-69283323D01*
X140614000Y-69290721D01*
X140614000Y-70054025D01*
X140594315Y-70121064D01*
X140541511Y-70166819D01*
X140476119Y-70177245D01*
X140462000Y-70175655D01*
X140461998Y-70175655D01*
X140461996Y-70175655D01*
X140287005Y-70195371D01*
X140120770Y-70253538D01*
X139971665Y-70347228D01*
X139971659Y-70347233D01*
X139847133Y-70471759D01*
X139847128Y-70471765D01*
X139753438Y-70620870D01*
X139695271Y-70787105D01*
X139675555Y-70962096D01*
X139675555Y-70962103D01*
X139695271Y-71137094D01*
X139753438Y-71303329D01*
X139847128Y-71452434D01*
X139847133Y-71452440D01*
X139971659Y-71576966D01*
X139971665Y-71576971D01*
X140120770Y-71670661D01*
X140178580Y-71690889D01*
X140287000Y-71728827D01*
X140287003Y-71728827D01*
X140287005Y-71728828D01*
X140461996Y-71748545D01*
X140462000Y-71748545D01*
X140462003Y-71748545D01*
X140593407Y-71733739D01*
X140662229Y-71745793D01*
X140706095Y-71782034D01*
X140760638Y-71853961D01*
X140877054Y-71942241D01*
X140877057Y-71942243D01*
X141012977Y-71995843D01*
X141098389Y-72006100D01*
X141481610Y-72006099D01*
X141567023Y-71995843D01*
X141702943Y-71942243D01*
X141819361Y-71853961D01*
X141907643Y-71737543D01*
X141961243Y-71601623D01*
X141971500Y-71516211D01*
X141971499Y-70407990D01*
X141969541Y-70391689D01*
X141981090Y-70322784D01*
X141987000Y-70314480D01*
X141987000Y-67932136D01*
X141997345Y-67886815D01*
X141996251Y-67886433D01*
X141998557Y-67879832D01*
X141998562Y-67879826D01*
X141999217Y-67877951D01*
X142001950Y-67871381D01*
X142004303Y-67866532D01*
X142004311Y-67866516D01*
X142006833Y-67860915D01*
X142006833Y-67860914D01*
X142006834Y-67860912D01*
X142019683Y-67828562D01*
X142020914Y-67821284D01*
X142026129Y-67801038D01*
X142056727Y-67713600D01*
X142076445Y-67538600D01*
X142056727Y-67363600D01*
X142032007Y-67292954D01*
X142028446Y-67223175D01*
X142063175Y-67162548D01*
X142125169Y-67130321D01*
X142149049Y-67128000D01*
X142369600Y-67128000D01*
X142436639Y-67147685D01*
X142482394Y-67200489D01*
X142493600Y-67252000D01*
X142493600Y-72085201D01*
X142987455Y-72578393D01*
X143020981Y-72639694D01*
X143016044Y-72709389D01*
X142974210Y-72765350D01*
X142966870Y-72770450D01*
X142965555Y-72771294D01*
X142862325Y-72860744D01*
X142823924Y-72920497D01*
X142771120Y-72966252D01*
X142701961Y-72976195D01*
X142638406Y-72947169D01*
X142631928Y-72941138D01*
X142225842Y-72535052D01*
X142169503Y-72538965D01*
X142169461Y-72538374D01*
X142160355Y-72540000D01*
X139489639Y-72540000D01*
X139480605Y-72537347D01*
X139480493Y-72538962D01*
X139424157Y-72535051D01*
X139018070Y-72941138D01*
X138956747Y-72974623D01*
X138887055Y-72969639D01*
X138831122Y-72927767D01*
X138826083Y-72920510D01*
X138787673Y-72860742D01*
X138684445Y-72771295D01*
X138684443Y-72771294D01*
X138683039Y-72770392D01*
X138681942Y-72769127D01*
X138677742Y-72765487D01*
X138678265Y-72764883D01*
X138637282Y-72717589D01*
X138627337Y-72648431D01*
X138656359Y-72584874D01*
X138662394Y-72578393D01*
X139062484Y-72178304D01*
X139062483Y-72178303D01*
X138954570Y-72111486D01*
X138954564Y-72111483D01*
X138750132Y-72032287D01*
X138534619Y-71992000D01*
X138315381Y-71992000D01*
X138099867Y-72032287D01*
X137895434Y-72111484D01*
X137787514Y-72178304D01*
X138187604Y-72578393D01*
X138221089Y-72639716D01*
X138216105Y-72709407D01*
X138174234Y-72765341D01*
X138166970Y-72770385D01*
X138165558Y-72771292D01*
X138062325Y-72860744D01*
X138023924Y-72920497D01*
X137971120Y-72966252D01*
X137901961Y-72976195D01*
X137838406Y-72947169D01*
X137831928Y-72941138D01*
X137466319Y-72575529D01*
X137455240Y-72555240D01*
X137430000Y-72530000D01*
X134630000Y-72530000D01*
X134629209Y-72530000D01*
X134218070Y-72941138D01*
X134156747Y-72974623D01*
X134087055Y-72969639D01*
X134031122Y-72927767D01*
X134026083Y-72920510D01*
X133987673Y-72860742D01*
X133884445Y-72771295D01*
X133884443Y-72771294D01*
X133883039Y-72770392D01*
X133881942Y-72769127D01*
X133877742Y-72765487D01*
X133878265Y-72764883D01*
X133837282Y-72717589D01*
X133827337Y-72648431D01*
X133856359Y-72584874D01*
X133862394Y-72578393D01*
X134262484Y-72178304D01*
X134262483Y-72178303D01*
X134154570Y-72111486D01*
X134154564Y-72111483D01*
X133950132Y-72032287D01*
X133734619Y-71992000D01*
X133515381Y-71992000D01*
X133299867Y-72032287D01*
X133095434Y-72111484D01*
X132987514Y-72178304D01*
X133387604Y-72578393D01*
X133421089Y-72639716D01*
X133416105Y-72709407D01*
X133374234Y-72765341D01*
X133366970Y-72770385D01*
X133365558Y-72771292D01*
X133262325Y-72860744D01*
X133223924Y-72920497D01*
X133171120Y-72966252D01*
X133101961Y-72976195D01*
X133038406Y-72947169D01*
X133031928Y-72941138D01*
X132625841Y-72535052D01*
X132569498Y-72538969D01*
X132569456Y-72538373D01*
X132560346Y-72540000D01*
X130973997Y-72540000D01*
X130906958Y-72520315D01*
X130861203Y-72467511D01*
X130849997Y-72416011D01*
X130849981Y-72234699D01*
X130849818Y-70326900D01*
X130849717Y-69149612D01*
X130843812Y-69138800D01*
X131140200Y-69138800D01*
X131140200Y-67995800D01*
X130845390Y-67995800D01*
X130845604Y-67995350D01*
X130850379Y-67990296D01*
X130860068Y-67980600D01*
X130860070Y-67980600D01*
X130859639Y-67250698D01*
X130879284Y-67183648D01*
X130932061Y-67137862D01*
X130983450Y-67126626D01*
X131731707Y-67125491D01*
X131738082Y-67125812D01*
X131759479Y-67127999D01*
X131759494Y-67128000D01*
X132079000Y-67128000D01*
X132079000Y-66426000D01*
X132841000Y-66426000D01*
X132841000Y-67128000D01*
X133160503Y-67128000D01*
X133160515Y-67127999D01*
X133264325Y-67117393D01*
X133432522Y-67061658D01*
X133432527Y-67061656D01*
X133583340Y-66968633D01*
X133708633Y-66843340D01*
X133801656Y-66692527D01*
X133801658Y-66692522D01*
X133857393Y-66524324D01*
X133857394Y-66524317D01*
X133867439Y-66426000D01*
X132841000Y-66426000D01*
X132079000Y-66426000D01*
X132079000Y-65788000D01*
X132098685Y-65720961D01*
X132151489Y-65675206D01*
X132203000Y-65664000D01*
X133237638Y-65664000D01*
X133304677Y-65683685D01*
X133325319Y-65700319D01*
X133350000Y-65725000D01*
X133750000Y-65725000D01*
X133774681Y-65700319D01*
X133836004Y-65666834D01*
X133862362Y-65664000D01*
X133867438Y-65664000D01*
X133857394Y-65565682D01*
X133857393Y-65565675D01*
X133801658Y-65397477D01*
X133801654Y-65397468D01*
X133768461Y-65343653D01*
X133750000Y-65278557D01*
X133750000Y-65222812D01*
X133769685Y-65155773D01*
X133822489Y-65110018D01*
X133891647Y-65100074D01*
X133912994Y-65106112D01*
X133913116Y-65105693D01*
X134074791Y-65152664D01*
X134074794Y-65152664D01*
X134074796Y-65152665D01*
X134086803Y-65153610D01*
X134110817Y-65155500D01*
X134110818Y-65155499D01*
X134110819Y-65155500D01*
X135739180Y-65155499D01*
X135775204Y-65152665D01*
X135929393Y-65107869D01*
X136067598Y-65026135D01*
X136181135Y-64912598D01*
X136262869Y-64774393D01*
X136307665Y-64620204D01*
X136310500Y-64584181D01*
X136310499Y-62624999D01*
X136330184Y-62557961D01*
X136382987Y-62512206D01*
X136434499Y-62501000D01*
X138015500Y-62501000D01*
X138082539Y-62520685D01*
G37*
G04 #@! TD.AperFunction*
G04 #@! TA.AperFunction,Conductor*
G36*
X139792632Y-80471022D02*
G01*
X139798950Y-80477369D01*
X139798972Y-80477422D01*
X139869862Y-80652154D01*
X139869977Y-80652464D01*
X139916222Y-80787937D01*
X139916421Y-80788675D01*
X139940751Y-80909761D01*
X139940852Y-80910526D01*
X139950362Y-81053285D01*
X139950375Y-81053626D01*
X139951904Y-81242120D01*
X139948544Y-81250421D01*
X139940299Y-81253915D01*
X139707663Y-81253915D01*
X139699390Y-81250488D01*
X139696174Y-81244427D01*
X139675933Y-81139280D01*
X139614756Y-81080006D01*
X139614757Y-81080006D01*
X139522009Y-81051576D01*
X139405525Y-81029523D01*
X139404919Y-81029374D01*
X139284281Y-80992888D01*
X139277354Y-80987213D01*
X139276469Y-80978302D01*
X139276846Y-80977243D01*
X139423141Y-80623098D01*
X139429465Y-80616762D01*
X139783679Y-80471001D01*
X139792632Y-80471022D01*
G37*
G04 #@! TD.AperFunction*
G04 #@! TA.AperFunction,Conductor*
G36*
X137392632Y-80471022D02*
G01*
X137398950Y-80477369D01*
X137398972Y-80477422D01*
X137469862Y-80652154D01*
X137469977Y-80652464D01*
X137516222Y-80787937D01*
X137516421Y-80788675D01*
X137540751Y-80909761D01*
X137540852Y-80910526D01*
X137550362Y-81053285D01*
X137550375Y-81053626D01*
X137551904Y-81242120D01*
X137548544Y-81250421D01*
X137540299Y-81253915D01*
X137307663Y-81253915D01*
X137299390Y-81250488D01*
X137296174Y-81244427D01*
X137275933Y-81139280D01*
X137214756Y-81080006D01*
X137214757Y-81080006D01*
X137122009Y-81051576D01*
X137005525Y-81029523D01*
X137004919Y-81029374D01*
X136884281Y-80992888D01*
X136877354Y-80987213D01*
X136876469Y-80978302D01*
X136876846Y-80977243D01*
X137023141Y-80623098D01*
X137029465Y-80616762D01*
X137383679Y-80471001D01*
X137392632Y-80471022D01*
G37*
G04 #@! TD.AperFunction*
G04 #@! TA.AperFunction,Conductor*
G36*
X136749407Y-86198427D02*
G01*
X136752802Y-86205836D01*
X136764533Y-86364294D01*
X136764534Y-86364297D01*
X136799301Y-86480030D01*
X136799304Y-86480037D01*
X136852063Y-86575823D01*
X136918419Y-86685019D01*
X136918684Y-86685505D01*
X136989148Y-86830786D01*
X136989675Y-86839725D01*
X136983727Y-86846419D01*
X136983123Y-86846691D01*
X136629502Y-86994123D01*
X136620548Y-86994144D01*
X136620498Y-86994123D01*
X136266876Y-86846691D01*
X136260558Y-86840344D01*
X136260579Y-86831390D01*
X136260844Y-86830801D01*
X136331321Y-86685492D01*
X136331579Y-86685019D01*
X136397935Y-86575823D01*
X136450693Y-86480037D01*
X136450694Y-86480036D01*
X136485465Y-86364294D01*
X136497197Y-86205836D01*
X136501226Y-86197839D01*
X136508866Y-86195000D01*
X136741134Y-86195000D01*
X136749407Y-86198427D01*
G37*
G04 #@! TD.AperFunction*
G04 #@! TA.AperFunction,Conductor*
G36*
X147824675Y-64343427D02*
G01*
X147828102Y-64351597D01*
X147831078Y-64690034D01*
X147848325Y-64940242D01*
X147848326Y-64940246D01*
X147891766Y-65152902D01*
X147973416Y-65390297D01*
X148043582Y-65562901D01*
X148100925Y-65703963D01*
X148100866Y-65712918D01*
X148094575Y-65719174D01*
X147324489Y-66039134D01*
X147315534Y-66039143D01*
X147315511Y-66039134D01*
X146545424Y-65719174D01*
X146539099Y-65712835D01*
X146539074Y-65703963D01*
X146666583Y-65390297D01*
X146748233Y-65152902D01*
X146791672Y-64940246D01*
X146808921Y-64690041D01*
X146808921Y-64690035D01*
X146811898Y-64351597D01*
X146815398Y-64343354D01*
X146823598Y-64340000D01*
X147816402Y-64340000D01*
X147824675Y-64343427D01*
G37*
G04 #@! TD.AperFunction*
G04 #@! TA.AperFunction,Conductor*
G36*
X140983123Y-80767908D02*
G01*
X140989441Y-80774255D01*
X140989420Y-80783209D01*
X140989148Y-80783813D01*
X140918684Y-80929093D01*
X140918419Y-80929578D01*
X140852063Y-81038776D01*
X140799304Y-81134561D01*
X140799301Y-81134568D01*
X140764534Y-81250301D01*
X140764533Y-81250304D01*
X140752802Y-81408764D01*
X140748774Y-81416761D01*
X140741134Y-81419600D01*
X140508866Y-81419600D01*
X140500593Y-81416173D01*
X140497198Y-81408764D01*
X140485465Y-81250304D01*
X140485464Y-81250301D01*
X140450696Y-81134568D01*
X140450693Y-81134561D01*
X140397935Y-81038776D01*
X140331579Y-80929578D01*
X140331314Y-80929092D01*
X140260851Y-80783813D01*
X140260324Y-80774874D01*
X140266272Y-80768180D01*
X140266862Y-80767914D01*
X140620500Y-80620475D01*
X140629449Y-80620455D01*
X140983123Y-80767908D01*
G37*
G04 #@! TD.AperFunction*
G04 #@! TA.AperFunction,Conductor*
G36*
X143475377Y-70416285D02*
G01*
X143496019Y-70432919D01*
X143776700Y-70713600D01*
X144605200Y-70713600D01*
X144672239Y-70733285D01*
X144717994Y-70786089D01*
X144729200Y-70837600D01*
X144729200Y-71351600D01*
X144709515Y-71418639D01*
X144656711Y-71464394D01*
X144605200Y-71475600D01*
X143304800Y-71475600D01*
X143237761Y-71455915D01*
X143192006Y-71403111D01*
X143180800Y-71351600D01*
X143180800Y-70520600D01*
X143200485Y-70453561D01*
X143253289Y-70407806D01*
X143304800Y-70396600D01*
X143408338Y-70396600D01*
X143475377Y-70416285D01*
G37*
G04 #@! TD.AperFunction*
G04 #@! TA.AperFunction,Conductor*
G36*
X133293039Y-62529085D02*
G01*
X133338794Y-62581889D01*
X133350000Y-62633400D01*
X133350000Y-64468200D01*
X133330315Y-64535239D01*
X133277511Y-64580994D01*
X133226000Y-64592200D01*
X131696000Y-64592200D01*
X131628961Y-64572515D01*
X131583206Y-64519711D01*
X131572000Y-64468200D01*
X131572000Y-62633400D01*
X131591685Y-62566361D01*
X131644489Y-62520606D01*
X131696000Y-62509400D01*
X133226000Y-62509400D01*
X133293039Y-62529085D01*
G37*
G04 #@! TD.AperFunction*
G04 #@! TA.AperFunction,Conductor*
G36*
X147324484Y-63500863D02*
G01*
X148094576Y-63820826D01*
X148100900Y-63827164D01*
X148100925Y-63836036D01*
X148026688Y-64018654D01*
X147973416Y-64149701D01*
X147973413Y-64149710D01*
X147891765Y-64387099D01*
X147848325Y-64599755D01*
X147831078Y-64849965D01*
X147828102Y-65188403D01*
X147824602Y-65196646D01*
X147816402Y-65200000D01*
X146823598Y-65200000D01*
X146815325Y-65196573D01*
X146811898Y-65188403D01*
X146808921Y-64849964D01*
X146808921Y-64849958D01*
X146791672Y-64599752D01*
X146748233Y-64387096D01*
X146666583Y-64149701D01*
X146539074Y-63836035D01*
X146539133Y-63827081D01*
X146545422Y-63820826D01*
X147315511Y-63500864D01*
X147324466Y-63500856D01*
X147324484Y-63500863D01*
G37*
G04 #@! TD.AperFunction*
G04 #@! TA.AperFunction,Conductor*
G36*
X137552202Y-82228427D02*
G01*
X137554866Y-82232545D01*
X137576600Y-82289759D01*
X137601203Y-82347146D01*
X137601203Y-82347145D01*
X137625797Y-82397135D01*
X137625800Y-82397140D01*
X137650400Y-82439760D01*
X137650404Y-82439766D01*
X137650403Y-82439765D01*
X137671952Y-82470634D01*
X137673877Y-82479379D01*
X137673709Y-82480166D01*
X137436351Y-83430550D01*
X137431022Y-83437746D01*
X137422165Y-83439066D01*
X137414969Y-83433737D01*
X137413649Y-83430550D01*
X137176290Y-82480166D01*
X137177610Y-82471309D01*
X137178037Y-82470649D01*
X137199600Y-82439760D01*
X137224200Y-82397140D01*
X137224203Y-82397135D01*
X137248797Y-82347146D01*
X137273400Y-82289759D01*
X137295134Y-82232545D01*
X137301275Y-82226028D01*
X137306071Y-82225000D01*
X137543929Y-82225000D01*
X137552202Y-82228427D01*
G37*
G04 #@! TD.AperFunction*
G04 #@! TA.AperFunction,Conductor*
G36*
X140997946Y-70670020D02*
G01*
X141090673Y-70762439D01*
X141282685Y-70953813D01*
X141286126Y-70962080D01*
X141282713Y-70970358D01*
X141282685Y-70970386D01*
X140997946Y-71254179D01*
X140989668Y-71257592D01*
X140981753Y-71254491D01*
X140929998Y-71206737D01*
X140870000Y-71161759D01*
X140810000Y-71127160D01*
X140809994Y-71127157D01*
X140809988Y-71127154D01*
X140809986Y-71127153D01*
X140750007Y-71102942D01*
X140750002Y-71102940D01*
X140750000Y-71102940D01*
X140713112Y-71094431D01*
X140699070Y-71091192D01*
X140691779Y-71085993D01*
X140690000Y-71079791D01*
X140690000Y-70844408D01*
X140693427Y-70836135D01*
X140699067Y-70833008D01*
X140750000Y-70821259D01*
X140769999Y-70813185D01*
X140809986Y-70797045D01*
X140809988Y-70797044D01*
X140809988Y-70797043D01*
X140810000Y-70797039D01*
X140870000Y-70762440D01*
X140930000Y-70717460D01*
X140981755Y-70669707D01*
X140990157Y-70666616D01*
X140997946Y-70670020D01*
G37*
G04 #@! TD.AperFunction*
M02*
