G04 #@! TF.GenerationSoftware,KiCad,Pcbnew,7.0.8*
G04 #@! TF.CreationDate,2023-10-08T00:05:14-04:00*
G04 #@! TF.ProjectId,sfp-snoop,7366702d-736e-46f6-9f70-2e6b69636164,rev?*
G04 #@! TF.SameCoordinates,Original*
G04 #@! TF.FileFunction,Soldermask,Top*
G04 #@! TF.FilePolarity,Negative*
%FSLAX46Y46*%
G04 Gerber Fmt 4.6, Leading zero omitted, Abs format (unit mm)*
G04 Created by KiCad (PCBNEW 7.0.8) date 2023-10-08 00:05:14*
%MOMM*%
%LPD*%
G01*
G04 APERTURE LIST*
G04 Aperture macros list*
%AMRoundRect*
0 Rectangle with rounded corners*
0 $1 Rounding radius*
0 $2 $3 $4 $5 $6 $7 $8 $9 X,Y pos of 4 corners*
0 Add a 4 corners polygon primitive as box body*
4,1,4,$2,$3,$4,$5,$6,$7,$8,$9,$2,$3,0*
0 Add four circle primitives for the rounded corners*
1,1,$1+$1,$2,$3*
1,1,$1+$1,$4,$5*
1,1,$1+$1,$6,$7*
1,1,$1+$1,$8,$9*
0 Add four rect primitives between the rounded corners*
20,1,$1+$1,$2,$3,$4,$5,0*
20,1,$1+$1,$4,$5,$6,$7,0*
20,1,$1+$1,$6,$7,$8,$9,0*
20,1,$1+$1,$8,$9,$2,$3,0*%
G04 Aperture macros list end*
%ADD10C,1.700000*%
%ADD11O,1.700000X1.700000*%
%ADD12R,1.700000X1.700000*%
%ADD13RoundRect,0.225000X0.250000X-0.225000X0.250000X0.225000X-0.250000X0.225000X-0.250000X-0.225000X0*%
%ADD14C,1.550000*%
%ADD15R,0.500000X2.000000*%
%ADD16C,1.350000*%
%ADD17RoundRect,0.250000X-0.650000X0.325000X-0.650000X-0.325000X0.650000X-0.325000X0.650000X0.325000X0*%
%ADD18RoundRect,0.150000X-0.150000X0.512500X-0.150000X-0.512500X0.150000X-0.512500X0.150000X0.512500X0*%
%ADD19RoundRect,0.250000X0.650000X-0.325000X0.650000X0.325000X-0.650000X0.325000X-0.650000X-0.325000X0*%
%ADD20R,1.500000X2.000000*%
%ADD21R,3.800000X2.000000*%
G04 APERTURE END LIST*
D10*
X147320000Y-63500000D03*
D11*
X147320000Y-66040000D03*
X147320000Y-68580000D03*
X147320000Y-71120000D03*
X147320000Y-73660000D03*
X147320000Y-76200000D03*
X147320000Y-78740000D03*
X147320000Y-81280000D03*
X147320000Y-83820000D03*
X147320000Y-86360000D03*
X147320000Y-88900000D03*
X147320000Y-91440000D03*
X147320000Y-93980000D03*
X147320000Y-96520000D03*
X147320000Y-99060000D03*
X147320000Y-101600000D03*
X147320000Y-104140000D03*
X147320000Y-106680000D03*
X147320000Y-109220000D03*
D12*
X147320000Y-111760000D03*
D13*
X144729200Y-71158400D03*
X144729200Y-69608400D03*
D14*
X133625000Y-79375000D03*
X143225000Y-79375000D03*
D15*
X135025000Y-83475000D03*
X135825000Y-83475000D03*
X136625000Y-83475000D03*
X137425000Y-83475000D03*
X138225000Y-83475000D03*
X139025000Y-83475000D03*
X139825000Y-83475000D03*
X140625000Y-83475000D03*
X141425000Y-83475000D03*
X142225000Y-83475000D03*
X141825000Y-75275000D03*
X141025000Y-75275000D03*
X140225000Y-75275000D03*
X139425000Y-75275000D03*
X138625000Y-75275000D03*
X137825000Y-75275000D03*
X137025000Y-75275000D03*
X136225000Y-75275000D03*
X135425000Y-75275000D03*
X134625000Y-75275000D03*
D16*
X131300000Y-110275000D03*
X139875000Y-110275000D03*
X145550000Y-105275000D03*
X131300000Y-100275000D03*
X145550000Y-95275000D03*
X131300000Y-90275000D03*
X136975000Y-90275000D03*
X142375000Y-90275000D03*
X131300000Y-87475000D03*
X145550000Y-87475000D03*
X145550000Y-85275000D03*
X131300000Y-82775000D03*
X145550000Y-82775000D03*
X131300000Y-80275000D03*
X131300000Y-77775000D03*
X145550000Y-77775000D03*
X145550000Y-75275000D03*
X133625000Y-73175000D03*
X138425000Y-73175000D03*
X143225000Y-73175000D03*
D12*
X129540000Y-63500000D03*
D11*
X129540000Y-66040000D03*
X129540000Y-68580000D03*
X129540000Y-71120000D03*
X129540000Y-73660000D03*
X129540000Y-76200000D03*
X129540000Y-78740000D03*
X129540000Y-81280000D03*
X129540000Y-83820000D03*
X129540000Y-86360000D03*
X129540000Y-88900000D03*
X129540000Y-91440000D03*
X129540000Y-93980000D03*
X129540000Y-96520000D03*
X129540000Y-99060000D03*
X129540000Y-101600000D03*
X129540000Y-104140000D03*
X129540000Y-106680000D03*
X129540000Y-109220000D03*
X129540000Y-111760000D03*
D17*
X142010000Y-63095000D03*
X142010000Y-66045000D03*
X132460000Y-63095000D03*
X132460000Y-66045000D03*
D18*
X143190000Y-68687100D03*
X142240000Y-68687100D03*
X141290000Y-68687100D03*
X141290000Y-70962100D03*
X143190000Y-70962100D03*
D19*
X144340000Y-66045000D03*
X144340000Y-63095000D03*
D20*
X139525000Y-63520000D03*
X137225000Y-63520000D03*
D21*
X137225000Y-69820000D03*
D20*
X134925000Y-63520000D03*
G36*
X142801831Y-91643499D02*
G01*
X142984855Y-91661524D01*
X143008697Y-91666266D01*
X143175921Y-91716993D01*
X143198380Y-91726296D01*
X143352487Y-91808669D01*
X143372698Y-91822174D01*
X143507779Y-91933032D01*
X143524967Y-91950220D01*
X143635825Y-92085301D01*
X143649330Y-92105512D01*
X143731703Y-92259619D01*
X143741006Y-92282078D01*
X143791733Y-92449302D01*
X143796475Y-92473143D01*
X143814501Y-92656167D01*
X143814800Y-92662248D01*
X143814800Y-107921551D01*
X143814501Y-107927632D01*
X143796475Y-108110656D01*
X143791733Y-108134497D01*
X143741006Y-108301721D01*
X143731703Y-108324180D01*
X143649330Y-108478287D01*
X143635825Y-108498498D01*
X143524967Y-108633579D01*
X143507779Y-108650767D01*
X143372698Y-108761625D01*
X143352487Y-108775130D01*
X143198380Y-108857503D01*
X143175921Y-108866806D01*
X143008697Y-108917533D01*
X142984856Y-108922275D01*
X142801832Y-108940301D01*
X142795751Y-108940600D01*
X134013449Y-108940600D01*
X134007368Y-108940301D01*
X133824343Y-108922275D01*
X133800502Y-108917533D01*
X133633278Y-108866806D01*
X133610819Y-108857503D01*
X133456712Y-108775130D01*
X133436501Y-108761625D01*
X133301420Y-108650767D01*
X133284232Y-108633579D01*
X133173374Y-108498498D01*
X133159869Y-108478287D01*
X133077496Y-108324180D01*
X133068193Y-108301721D01*
X133017466Y-108134497D01*
X133012724Y-108110655D01*
X132994699Y-107927631D01*
X132994400Y-107921551D01*
X132994400Y-92662248D01*
X132994699Y-92656168D01*
X133012724Y-92473144D01*
X133017466Y-92449302D01*
X133068193Y-92282078D01*
X133077496Y-92259619D01*
X133159869Y-92105512D01*
X133173374Y-92085301D01*
X133284232Y-91950220D01*
X133301420Y-91933032D01*
X133436501Y-91822174D01*
X133456712Y-91808669D01*
X133610819Y-91726296D01*
X133633278Y-91716993D01*
X133800502Y-91666266D01*
X133824344Y-91661524D01*
X134007369Y-91643499D01*
X134013449Y-91643200D01*
X142795751Y-91643200D01*
X142801831Y-91643499D01*
G37*
M02*
