M48
; DRILL file {KiCad 7.0.7} date Sun 03 Sep 2023 09:09:54 PM
; FORMAT={-:-/ absolute / metric / decimal}
; #@! TF.CreationDate,2023-09-03T21:09:54-04:00
; #@! TF.GenerationSoftware,Kicad,Pcbnew,7.0.7
; #@! TF.FileFunction,Plated,1,2,PTH
FMAT,2
METRIC
; #@! TA.AperFunction,Plated,PTH,ViaDrill
T1C0.400
; #@! TA.AperFunction,Plated,PTH,ComponentDrill
T2C0.850
; #@! TA.AperFunction,Plated,PTH,ComponentDrill
T3C0.950
; #@! TA.AperFunction,Plated,PTH,ComponentDrill
T4C1.000
; #@! TA.AperFunction,Plated,PTH,ComponentDrill
T5C1.050
; #@! TA.AperFunction,Plated,PTH,ViaDrill
T6C1.524
%
G90
G05
T1
X131.547Y-67.92
X131.547Y-69.596
X131.547Y-71.425
X132.944Y-64.186
X133.96Y-83.475
X133.96Y-86.995
X134.431Y-65.607
X134.431Y-66.75
X134.431Y-67.893
X135.077Y-79.629
X135.56Y-71.425
X135.825Y-80.62
X135.828Y-65.607
X135.828Y-66.75
X135.828Y-67.893
X136.625Y-86.995
X137.025Y-80.62
X137.225Y-65.607
X137.225Y-66.75
X137.225Y-67.893
X137.425Y-77.18
X137.825Y-86.995
X138.622Y-65.607
X138.622Y-66.75
X138.622Y-67.893
X139.025Y-77.18
X139.025Y-86.995
X139.425Y-80.62
X140.019Y-65.607
X140.019Y-66.75
X140.019Y-67.893
X140.462Y-70.962
X140.625Y-80.62
X141.29Y-67.539
X141.425Y-86.995
X141.58Y-79.375
X142.875Y-75.275
X143.332Y-67.539
X143.485Y-86.995
X144.34Y-67.539
X145.339Y-67.539
T2
X131.3Y-80.275
T3
X131.3Y-77.775
X131.3Y-82.775
X131.3Y-87.475
X133.625Y-73.175
X138.425Y-73.175
X143.225Y-73.175
X145.55Y-77.775
X145.55Y-82.775
X145.55Y-87.475
T4
X129.54Y-63.5
X129.54Y-66.04
X129.54Y-68.58
X129.54Y-71.12
X129.54Y-73.66
X129.54Y-76.2
X129.54Y-78.74
X129.54Y-81.28
X129.54Y-83.82
X129.54Y-86.36
X129.54Y-88.9
X129.54Y-91.44
X129.54Y-93.98
X129.54Y-96.52
X129.54Y-99.06
X129.54Y-101.6
X129.54Y-104.14
X129.54Y-106.68
X129.54Y-109.22
X129.54Y-111.76
X147.32Y-63.5
X147.32Y-66.04
X147.32Y-68.58
X147.32Y-71.12
X147.32Y-73.66
X147.32Y-76.2
X147.32Y-78.74
X147.32Y-81.28
X147.32Y-83.82
X147.32Y-86.36
X147.32Y-88.9
X147.32Y-91.44
X147.32Y-93.98
X147.32Y-96.52
X147.32Y-99.06
X147.32Y-101.6
X147.32Y-104.14
X147.32Y-106.68
X147.32Y-109.22
X147.32Y-111.76
T5
X131.3Y-90.275
X131.3Y-100.275
X131.3Y-110.275
X136.975Y-90.275
X139.875Y-110.275
X142.375Y-90.275
X145.55Y-75.275
X145.55Y-85.275
X145.55Y-95.275
X145.55Y-105.275
T6
X134.087Y-92.735
X134.087Y-94.894
X134.087Y-97.053
X134.087Y-99.212
X134.087Y-101.371
X134.087Y-103.53
X134.087Y-105.689
X134.087Y-107.848
X136.246Y-92.735
X136.246Y-94.894
X136.246Y-97.053
X136.246Y-99.212
X136.246Y-101.371
X136.246Y-103.53
X136.246Y-105.689
X136.246Y-107.848
X138.405Y-92.735
X138.405Y-94.894
X138.405Y-97.053
X138.405Y-99.212
X138.405Y-101.371
X138.405Y-103.53
X138.405Y-105.689
X138.405Y-107.848
X140.564Y-92.735
X140.564Y-94.894
X140.564Y-97.053
X140.564Y-99.212
X140.564Y-101.371
X140.564Y-103.53
X140.564Y-105.689
X140.564Y-107.848
X142.723Y-92.735
X142.723Y-94.894
X142.723Y-97.053
X142.723Y-99.212
X142.723Y-101.371
X142.723Y-103.53
X142.723Y-105.689
X142.723Y-107.848
T0
M30
