G04 #@! TF.GenerationSoftware,KiCad,Pcbnew,7.0.7*
G04 #@! TF.CreationDate,2023-09-03T21:09:51-04:00*
G04 #@! TF.ProjectId,sfp-snoop,7366702d-736e-46f6-9f70-2e6b69636164,rev?*
G04 #@! TF.SameCoordinates,Original*
G04 #@! TF.FileFunction,Legend,Top*
G04 #@! TF.FilePolarity,Positive*
%FSLAX46Y46*%
G04 Gerber Fmt 4.6, Leading zero omitted, Abs format (unit mm)*
G04 Created by KiCad (PCBNEW 7.0.7) date 2023-09-03 21:09:51*
%MOMM*%
%LPD*%
G01*
G04 APERTURE LIST*
G04 Aperture macros list*
%AMRoundRect*
0 Rectangle with rounded corners*
0 $1 Rounding radius*
0 $2 $3 $4 $5 $6 $7 $8 $9 X,Y pos of 4 corners*
0 Add a 4 corners polygon primitive as box body*
4,1,4,$2,$3,$4,$5,$6,$7,$8,$9,$2,$3,0*
0 Add four circle primitives for the rounded corners*
1,1,$1+$1,$2,$3*
1,1,$1+$1,$4,$5*
1,1,$1+$1,$6,$7*
1,1,$1+$1,$8,$9*
0 Add four rect primitives between the rounded corners*
20,1,$1+$1,$2,$3,$4,$5,0*
20,1,$1+$1,$4,$5,$6,$7,0*
20,1,$1+$1,$6,$7,$8,$9,0*
20,1,$1+$1,$8,$9,$2,$3,0*%
G04 Aperture macros list end*
%ADD10C,0.150000*%
%ADD11C,0.120000*%
%ADD12C,0.240000*%
%ADD13C,1.700000*%
%ADD14O,1.700000X1.700000*%
%ADD15R,1.700000X1.700000*%
%ADD16RoundRect,0.225000X0.250000X-0.225000X0.250000X0.225000X-0.250000X0.225000X-0.250000X-0.225000X0*%
%ADD17C,1.550000*%
%ADD18R,0.500000X2.000000*%
%ADD19C,1.350000*%
%ADD20RoundRect,0.250000X-0.650000X0.325000X-0.650000X-0.325000X0.650000X-0.325000X0.650000X0.325000X0*%
%ADD21RoundRect,0.150000X-0.150000X0.512500X-0.150000X-0.512500X0.150000X-0.512500X0.150000X0.512500X0*%
%ADD22RoundRect,0.250000X0.650000X-0.325000X0.650000X0.325000X-0.650000X0.325000X-0.650000X-0.325000X0*%
%ADD23R,1.500000X2.000000*%
%ADD24R,3.800000X2.000000*%
G04 APERTURE END LIST*
D10*
X137261600Y-87299800D02*
X139954000Y-87299800D01*
X139954000Y-87376000D01*
X137261600Y-87376000D01*
X137261600Y-87299800D01*
G36*
X137261600Y-87299800D02*
G01*
X139954000Y-87299800D01*
X139954000Y-87376000D01*
X137261600Y-87376000D01*
X137261600Y-87299800D01*
G37*
X137261600Y-86893400D02*
X139954000Y-86893400D01*
X139954000Y-86969600D01*
X137261600Y-86969600D01*
X137261600Y-86893400D01*
G36*
X137261600Y-86893400D02*
G01*
X139954000Y-86893400D01*
X139954000Y-86969600D01*
X137261600Y-86969600D01*
X137261600Y-86893400D01*
G37*
X137261600Y-87706200D02*
X139954000Y-87706200D01*
X139954000Y-87782400D01*
X137261600Y-87782400D01*
X137261600Y-87706200D01*
G36*
X137261600Y-87706200D02*
G01*
X139954000Y-87706200D01*
X139954000Y-87782400D01*
X137261600Y-87782400D01*
X137261600Y-87706200D01*
G37*
X132384823Y-71755000D02*
X132105673Y-71475850D01*
X132664223Y-71475600D01*
X132384823Y-71755000D01*
G36*
X132384823Y-71755000D02*
G01*
X132105673Y-71475850D01*
X132664223Y-71475600D01*
X132384823Y-71755000D01*
G37*
X139943471Y-86537800D02*
X137283211Y-86537800D01*
X138615931Y-85205080D01*
X139943471Y-86537800D01*
G36*
X139943471Y-86537800D02*
G01*
X137283211Y-86537800D01*
X138615931Y-85205080D01*
X139943471Y-86537800D01*
G37*
X134261388Y-85036819D02*
X133689960Y-85036819D01*
X133975674Y-85036819D02*
X133975674Y-84036819D01*
X133975674Y-84036819D02*
X133880436Y-84179676D01*
X133880436Y-84179676D02*
X133785198Y-84274914D01*
X133785198Y-84274914D02*
X133689960Y-84322533D01*
X127615744Y-64045180D02*
X127520506Y-64045180D01*
X127520506Y-64045180D02*
X127425268Y-63997561D01*
X127425268Y-63997561D02*
X127377649Y-63949942D01*
X127377649Y-63949942D02*
X127330030Y-63854704D01*
X127330030Y-63854704D02*
X127282411Y-63664228D01*
X127282411Y-63664228D02*
X127282411Y-63426133D01*
X127282411Y-63426133D02*
X127330030Y-63235657D01*
X127330030Y-63235657D02*
X127377649Y-63140419D01*
X127377649Y-63140419D02*
X127425268Y-63092800D01*
X127425268Y-63092800D02*
X127520506Y-63045180D01*
X127520506Y-63045180D02*
X127615744Y-63045180D01*
X127615744Y-63045180D02*
X127710982Y-63092800D01*
X127710982Y-63092800D02*
X127758601Y-63140419D01*
X127758601Y-63140419D02*
X127806220Y-63235657D01*
X127806220Y-63235657D02*
X127853839Y-63426133D01*
X127853839Y-63426133D02*
X127853839Y-63664228D01*
X127853839Y-63664228D02*
X127806220Y-63854704D01*
X127806220Y-63854704D02*
X127758601Y-63949942D01*
X127758601Y-63949942D02*
X127710982Y-63997561D01*
X127710982Y-63997561D02*
X127615744Y-64045180D01*
X143446523Y-85036819D02*
X142875095Y-85036819D01*
X143160809Y-85036819D02*
X143160809Y-84036819D01*
X143160809Y-84036819D02*
X143065571Y-84179676D01*
X143065571Y-84179676D02*
X142970333Y-84274914D01*
X142970333Y-84274914D02*
X142875095Y-84322533D01*
X144065571Y-84036819D02*
X144160809Y-84036819D01*
X144160809Y-84036819D02*
X144256047Y-84084438D01*
X144256047Y-84084438D02*
X144303666Y-84132057D01*
X144303666Y-84132057D02*
X144351285Y-84227295D01*
X144351285Y-84227295D02*
X144398904Y-84417771D01*
X144398904Y-84417771D02*
X144398904Y-84655866D01*
X144398904Y-84655866D02*
X144351285Y-84846342D01*
X144351285Y-84846342D02*
X144303666Y-84941580D01*
X144303666Y-84941580D02*
X144256047Y-84989200D01*
X144256047Y-84989200D02*
X144160809Y-85036819D01*
X144160809Y-85036819D02*
X144065571Y-85036819D01*
X144065571Y-85036819D02*
X143970333Y-84989200D01*
X143970333Y-84989200D02*
X143922714Y-84941580D01*
X143922714Y-84941580D02*
X143875095Y-84846342D01*
X143875095Y-84846342D02*
X143827476Y-84655866D01*
X143827476Y-84655866D02*
X143827476Y-84417771D01*
X143827476Y-84417771D02*
X143875095Y-84227295D01*
X143875095Y-84227295D02*
X143922714Y-84132057D01*
X143922714Y-84132057D02*
X143970333Y-84084438D01*
X143970333Y-84084438D02*
X144065571Y-84036819D01*
X142497980Y-61361676D02*
X142545600Y-61409295D01*
X142545600Y-61409295D02*
X142593219Y-61552152D01*
X142593219Y-61552152D02*
X142593219Y-61647390D01*
X142593219Y-61647390D02*
X142545600Y-61790247D01*
X142545600Y-61790247D02*
X142450361Y-61885485D01*
X142450361Y-61885485D02*
X142355123Y-61933104D01*
X142355123Y-61933104D02*
X142164647Y-61980723D01*
X142164647Y-61980723D02*
X142021790Y-61980723D01*
X142021790Y-61980723D02*
X141831314Y-61933104D01*
X141831314Y-61933104D02*
X141736076Y-61885485D01*
X141736076Y-61885485D02*
X141640838Y-61790247D01*
X141640838Y-61790247D02*
X141593219Y-61647390D01*
X141593219Y-61647390D02*
X141593219Y-61552152D01*
X141593219Y-61552152D02*
X141640838Y-61409295D01*
X141640838Y-61409295D02*
X141688457Y-61361676D01*
X133937951Y-111291019D02*
X133937951Y-112005304D01*
X133937951Y-112005304D02*
X133890332Y-112148161D01*
X133890332Y-112148161D02*
X133795094Y-112243400D01*
X133795094Y-112243400D02*
X133652237Y-112291019D01*
X133652237Y-112291019D02*
X133556999Y-112291019D01*
X134890332Y-112291019D02*
X134414142Y-112291019D01*
X134414142Y-112291019D02*
X134414142Y-111291019D01*
X135795094Y-112195780D02*
X135747475Y-112243400D01*
X135747475Y-112243400D02*
X135604618Y-112291019D01*
X135604618Y-112291019D02*
X135509380Y-112291019D01*
X135509380Y-112291019D02*
X135366523Y-112243400D01*
X135366523Y-112243400D02*
X135271285Y-112148161D01*
X135271285Y-112148161D02*
X135223666Y-112052923D01*
X135223666Y-112052923D02*
X135176047Y-111862447D01*
X135176047Y-111862447D02*
X135176047Y-111719590D01*
X135176047Y-111719590D02*
X135223666Y-111529114D01*
X135223666Y-111529114D02*
X135271285Y-111433876D01*
X135271285Y-111433876D02*
X135366523Y-111338638D01*
X135366523Y-111338638D02*
X135509380Y-111291019D01*
X135509380Y-111291019D02*
X135604618Y-111291019D01*
X135604618Y-111291019D02*
X135747475Y-111338638D01*
X135747475Y-111338638D02*
X135795094Y-111386257D01*
X136509380Y-111291019D02*
X136509380Y-112005304D01*
X136509380Y-112005304D02*
X136461761Y-112148161D01*
X136461761Y-112148161D02*
X136366523Y-112243400D01*
X136366523Y-112243400D02*
X136223666Y-112291019D01*
X136223666Y-112291019D02*
X136128428Y-112291019D01*
X137461761Y-112291019D02*
X136985571Y-112291019D01*
X136985571Y-112291019D02*
X136985571Y-111291019D01*
X138366523Y-112195780D02*
X138318904Y-112243400D01*
X138318904Y-112243400D02*
X138176047Y-112291019D01*
X138176047Y-112291019D02*
X138080809Y-112291019D01*
X138080809Y-112291019D02*
X137937952Y-112243400D01*
X137937952Y-112243400D02*
X137842714Y-112148161D01*
X137842714Y-112148161D02*
X137795095Y-112052923D01*
X137795095Y-112052923D02*
X137747476Y-111862447D01*
X137747476Y-111862447D02*
X137747476Y-111719590D01*
X137747476Y-111719590D02*
X137795095Y-111529114D01*
X137795095Y-111529114D02*
X137842714Y-111433876D01*
X137842714Y-111433876D02*
X137937952Y-111338638D01*
X137937952Y-111338638D02*
X138080809Y-111291019D01*
X138080809Y-111291019D02*
X138176047Y-111291019D01*
X138176047Y-111291019D02*
X138318904Y-111338638D01*
X138318904Y-111338638D02*
X138366523Y-111386257D01*
X139080809Y-111291019D02*
X139080809Y-112005304D01*
X139080809Y-112005304D02*
X139033190Y-112148161D01*
X139033190Y-112148161D02*
X138937952Y-112243400D01*
X138937952Y-112243400D02*
X138795095Y-112291019D01*
X138795095Y-112291019D02*
X138699857Y-112291019D01*
X140033190Y-112291019D02*
X139557000Y-112291019D01*
X139557000Y-112291019D02*
X139557000Y-111291019D01*
X140937952Y-112195780D02*
X140890333Y-112243400D01*
X140890333Y-112243400D02*
X140747476Y-112291019D01*
X140747476Y-112291019D02*
X140652238Y-112291019D01*
X140652238Y-112291019D02*
X140509381Y-112243400D01*
X140509381Y-112243400D02*
X140414143Y-112148161D01*
X140414143Y-112148161D02*
X140366524Y-112052923D01*
X140366524Y-112052923D02*
X140318905Y-111862447D01*
X140318905Y-111862447D02*
X140318905Y-111719590D01*
X140318905Y-111719590D02*
X140366524Y-111529114D01*
X140366524Y-111529114D02*
X140414143Y-111433876D01*
X140414143Y-111433876D02*
X140509381Y-111338638D01*
X140509381Y-111338638D02*
X140652238Y-111291019D01*
X140652238Y-111291019D02*
X140747476Y-111291019D01*
X140747476Y-111291019D02*
X140890333Y-111338638D01*
X140890333Y-111338638D02*
X140937952Y-111386257D01*
X141652238Y-111291019D02*
X141652238Y-112005304D01*
X141652238Y-112005304D02*
X141604619Y-112148161D01*
X141604619Y-112148161D02*
X141509381Y-112243400D01*
X141509381Y-112243400D02*
X141366524Y-112291019D01*
X141366524Y-112291019D02*
X141271286Y-112291019D01*
X142604619Y-112291019D02*
X142128429Y-112291019D01*
X142128429Y-112291019D02*
X142128429Y-111291019D01*
X143509381Y-112195780D02*
X143461762Y-112243400D01*
X143461762Y-112243400D02*
X143318905Y-112291019D01*
X143318905Y-112291019D02*
X143223667Y-112291019D01*
X143223667Y-112291019D02*
X143080810Y-112243400D01*
X143080810Y-112243400D02*
X142985572Y-112148161D01*
X142985572Y-112148161D02*
X142937953Y-112052923D01*
X142937953Y-112052923D02*
X142890334Y-111862447D01*
X142890334Y-111862447D02*
X142890334Y-111719590D01*
X142890334Y-111719590D02*
X142937953Y-111529114D01*
X142937953Y-111529114D02*
X142985572Y-111433876D01*
X142985572Y-111433876D02*
X143080810Y-111338638D01*
X143080810Y-111338638D02*
X143223667Y-111291019D01*
X143223667Y-111291019D02*
X143318905Y-111291019D01*
X143318905Y-111291019D02*
X143461762Y-111338638D01*
X143461762Y-111338638D02*
X143509381Y-111386257D01*
X144380809Y-61553742D02*
X144380809Y-61887075D01*
X144904619Y-61887075D02*
X143904619Y-61887075D01*
X143904619Y-61887075D02*
X143904619Y-61410885D01*
X145088780Y-68060866D02*
X145136400Y-68108485D01*
X145136400Y-68108485D02*
X145184019Y-68251342D01*
X145184019Y-68251342D02*
X145184019Y-68346580D01*
X145184019Y-68346580D02*
X145136400Y-68489437D01*
X145136400Y-68489437D02*
X145041161Y-68584675D01*
X145041161Y-68584675D02*
X144945923Y-68632294D01*
X144945923Y-68632294D02*
X144755447Y-68679913D01*
X144755447Y-68679913D02*
X144612590Y-68679913D01*
X144612590Y-68679913D02*
X144422114Y-68632294D01*
X144422114Y-68632294D02*
X144326876Y-68584675D01*
X144326876Y-68584675D02*
X144231638Y-68489437D01*
X144231638Y-68489437D02*
X144184019Y-68346580D01*
X144184019Y-68346580D02*
X144184019Y-68251342D01*
X144184019Y-68251342D02*
X144231638Y-68108485D01*
X144231638Y-68108485D02*
X144279257Y-68060866D01*
X144184019Y-67727532D02*
X144184019Y-67108485D01*
X144184019Y-67108485D02*
X144564971Y-67441818D01*
X144564971Y-67441818D02*
X144564971Y-67298961D01*
X144564971Y-67298961D02*
X144612590Y-67203723D01*
X144612590Y-67203723D02*
X144660209Y-67156104D01*
X144660209Y-67156104D02*
X144755447Y-67108485D01*
X144755447Y-67108485D02*
X144993542Y-67108485D01*
X144993542Y-67108485D02*
X145088780Y-67156104D01*
X145088780Y-67156104D02*
X145136400Y-67203723D01*
X145136400Y-67203723D02*
X145184019Y-67298961D01*
X145184019Y-67298961D02*
X145184019Y-67584675D01*
X145184019Y-67584675D02*
X145136400Y-67679913D01*
X145136400Y-67679913D02*
X145088780Y-67727532D01*
X131966619Y-71021533D02*
X132680904Y-71021533D01*
X132680904Y-71021533D02*
X132823761Y-71069152D01*
X132823761Y-71069152D02*
X132919000Y-71164390D01*
X132919000Y-71164390D02*
X132966619Y-71307247D01*
X132966619Y-71307247D02*
X132966619Y-71402485D01*
X132966619Y-70021533D02*
X132966619Y-70592961D01*
X132966619Y-70307247D02*
X131966619Y-70307247D01*
X131966619Y-70307247D02*
X132109476Y-70402485D01*
X132109476Y-70402485D02*
X132204714Y-70497723D01*
X132204714Y-70497723D02*
X132252333Y-70592961D01*
X132820580Y-68086266D02*
X132868200Y-68133885D01*
X132868200Y-68133885D02*
X132915819Y-68276742D01*
X132915819Y-68276742D02*
X132915819Y-68371980D01*
X132915819Y-68371980D02*
X132868200Y-68514837D01*
X132868200Y-68514837D02*
X132772961Y-68610075D01*
X132772961Y-68610075D02*
X132677723Y-68657694D01*
X132677723Y-68657694D02*
X132487247Y-68705313D01*
X132487247Y-68705313D02*
X132344390Y-68705313D01*
X132344390Y-68705313D02*
X132153914Y-68657694D01*
X132153914Y-68657694D02*
X132058676Y-68610075D01*
X132058676Y-68610075D02*
X131963438Y-68514837D01*
X131963438Y-68514837D02*
X131915819Y-68371980D01*
X131915819Y-68371980D02*
X131915819Y-68276742D01*
X131915819Y-68276742D02*
X131963438Y-68133885D01*
X131963438Y-68133885D02*
X132011057Y-68086266D01*
X132011057Y-67705313D02*
X131963438Y-67657694D01*
X131963438Y-67657694D02*
X131915819Y-67562456D01*
X131915819Y-67562456D02*
X131915819Y-67324361D01*
X131915819Y-67324361D02*
X131963438Y-67229123D01*
X131963438Y-67229123D02*
X132011057Y-67181504D01*
X132011057Y-67181504D02*
X132106295Y-67133885D01*
X132106295Y-67133885D02*
X132201533Y-67133885D01*
X132201533Y-67133885D02*
X132344390Y-67181504D01*
X132344390Y-67181504D02*
X132915819Y-67752932D01*
X132915819Y-67752932D02*
X132915819Y-67133885D01*
X139434219Y-70586504D02*
X140243742Y-70586504D01*
X140243742Y-70586504D02*
X140338980Y-70538885D01*
X140338980Y-70538885D02*
X140386600Y-70491266D01*
X140386600Y-70491266D02*
X140434219Y-70396028D01*
X140434219Y-70396028D02*
X140434219Y-70205552D01*
X140434219Y-70205552D02*
X140386600Y-70110314D01*
X140386600Y-70110314D02*
X140338980Y-70062695D01*
X140338980Y-70062695D02*
X140243742Y-70015076D01*
X140243742Y-70015076D02*
X139434219Y-70015076D01*
X139529457Y-69586504D02*
X139481838Y-69538885D01*
X139481838Y-69538885D02*
X139434219Y-69443647D01*
X139434219Y-69443647D02*
X139434219Y-69205552D01*
X139434219Y-69205552D02*
X139481838Y-69110314D01*
X139481838Y-69110314D02*
X139529457Y-69062695D01*
X139529457Y-69062695D02*
X139624695Y-69015076D01*
X139624695Y-69015076D02*
X139719933Y-69015076D01*
X139719933Y-69015076D02*
X139862790Y-69062695D01*
X139862790Y-69062695D02*
X140434219Y-69634123D01*
X140434219Y-69634123D02*
X140434219Y-69015076D01*
X133846219Y-70586504D02*
X134655742Y-70586504D01*
X134655742Y-70586504D02*
X134750980Y-70538885D01*
X134750980Y-70538885D02*
X134798600Y-70491266D01*
X134798600Y-70491266D02*
X134846219Y-70396028D01*
X134846219Y-70396028D02*
X134846219Y-70205552D01*
X134846219Y-70205552D02*
X134798600Y-70110314D01*
X134798600Y-70110314D02*
X134750980Y-70062695D01*
X134750980Y-70062695D02*
X134655742Y-70015076D01*
X134655742Y-70015076D02*
X133846219Y-70015076D01*
X134846219Y-69015076D02*
X134846219Y-69586504D01*
X134846219Y-69300790D02*
X133846219Y-69300790D01*
X133846219Y-69300790D02*
X133989076Y-69396028D01*
X133989076Y-69396028D02*
X134084314Y-69491266D01*
X134084314Y-69491266D02*
X134131933Y-69586504D01*
D11*
X145990000Y-62170000D02*
X145990000Y-74350000D01*
X145990000Y-62170000D02*
X148650000Y-62170000D01*
X145990000Y-76200000D02*
X145990000Y-76850000D01*
X145990000Y-78700000D02*
X145990000Y-81850000D01*
X145990000Y-83700000D02*
X145990000Y-84350000D01*
X145990000Y-86200000D02*
X145990000Y-86550000D01*
X145990000Y-88400000D02*
X145990000Y-94350000D01*
X145990000Y-96200000D02*
X145990000Y-104350000D01*
X145990000Y-106200000D02*
X145990000Y-113090000D01*
X145990000Y-113090000D02*
X148650000Y-113090000D01*
X147320000Y-62170000D02*
X148650000Y-62170000D01*
X148650000Y-62170000D02*
X148650000Y-113090000D01*
X144219200Y-70523980D02*
X144219200Y-70242820D01*
X145239200Y-70523980D02*
X145239200Y-70242820D01*
X146425000Y-114775000D02*
X130425000Y-114775000D01*
X132425000Y-83475000D02*
X134425000Y-83475000D01*
X134425000Y-83475000D02*
X134425000Y-84475000D01*
X142825000Y-83475000D02*
X144425000Y-83475000D01*
X132425000Y-75275000D02*
X132425000Y-83475000D01*
X134025000Y-75275000D02*
X132425000Y-75275000D01*
X142425000Y-75275000D02*
X144425000Y-75275000D01*
X144425000Y-75275000D02*
X144425000Y-83475000D01*
D12*
X145925000Y-72075000D02*
X130925000Y-72075000D01*
D11*
X128210000Y-62170000D02*
X128210000Y-113090000D01*
X128210000Y-62170000D02*
X130870000Y-62170000D01*
X128210000Y-113090000D02*
X130870000Y-113090000D01*
X130870000Y-62170000D02*
X130870000Y-76850000D01*
X130870000Y-78700000D02*
X130870000Y-79350000D01*
X130870000Y-81200000D02*
X130870000Y-81850000D01*
X130870000Y-83700000D02*
X130870000Y-86550000D01*
X130870000Y-88400000D02*
X130870000Y-89350000D01*
X130870000Y-91200000D02*
X130870000Y-99350000D01*
X130870000Y-101200000D02*
X130870000Y-109350000D01*
X130870000Y-111200000D02*
X130870000Y-113090000D01*
X142920000Y-63858748D02*
X142920000Y-65281252D01*
X141100000Y-63858748D02*
X141100000Y-65281252D01*
X133370000Y-63858748D02*
X133370000Y-65281252D01*
X131550000Y-63858748D02*
X131550000Y-65281252D01*
X143800000Y-69824600D02*
X143800000Y-68024600D01*
X143800000Y-69824600D02*
X143800000Y-70624600D01*
X140680000Y-69824600D02*
X140680000Y-69024600D01*
X140680000Y-69824600D02*
X140680000Y-70624600D01*
X143430000Y-65281252D02*
X143430000Y-63858748D01*
X145250000Y-65281252D02*
X145250000Y-63858748D01*
X140635000Y-62570000D02*
X140635000Y-68580000D01*
X133815000Y-64820000D02*
X133815000Y-68580000D01*
X140635000Y-68580000D02*
X139375000Y-68580000D01*
X133815000Y-68580000D02*
X135075000Y-68580000D01*
%LPC*%
D13*
X147320000Y-63500000D03*
D14*
X147320000Y-66040000D03*
X147320000Y-68580000D03*
X147320000Y-71120000D03*
X147320000Y-73660000D03*
X147320000Y-76200000D03*
X147320000Y-78740000D03*
X147320000Y-81280000D03*
X147320000Y-83820000D03*
X147320000Y-86360000D03*
X147320000Y-88900000D03*
X147320000Y-91440000D03*
X147320000Y-93980000D03*
X147320000Y-96520000D03*
X147320000Y-99060000D03*
X147320000Y-101600000D03*
X147320000Y-104140000D03*
X147320000Y-106680000D03*
X147320000Y-109220000D03*
D15*
X147320000Y-111760000D03*
D16*
X144729200Y-71158400D03*
X144729200Y-69608400D03*
D17*
X133625000Y-79375000D03*
X143225000Y-79375000D03*
D18*
X135025000Y-83475000D03*
X135825000Y-83475000D03*
X136625000Y-83475000D03*
X137425000Y-83475000D03*
X138225000Y-83475000D03*
X139025000Y-83475000D03*
X139825000Y-83475000D03*
X140625000Y-83475000D03*
X141425000Y-83475000D03*
X142225000Y-83475000D03*
X141825000Y-75275000D03*
X141025000Y-75275000D03*
X140225000Y-75275000D03*
X139425000Y-75275000D03*
X138625000Y-75275000D03*
X137825000Y-75275000D03*
X137025000Y-75275000D03*
X136225000Y-75275000D03*
X135425000Y-75275000D03*
X134625000Y-75275000D03*
D19*
X131300000Y-110275000D03*
X139875000Y-110275000D03*
X145550000Y-105275000D03*
X131300000Y-100275000D03*
X145550000Y-95275000D03*
X131300000Y-90275000D03*
X136975000Y-90275000D03*
X142375000Y-90275000D03*
X131300000Y-87475000D03*
X145550000Y-87475000D03*
X145550000Y-85275000D03*
X131300000Y-82775000D03*
X145550000Y-82775000D03*
X131300000Y-80275000D03*
X131300000Y-77775000D03*
X145550000Y-77775000D03*
X145550000Y-75275000D03*
X133625000Y-73175000D03*
X138425000Y-73175000D03*
X143225000Y-73175000D03*
D15*
X129540000Y-63500000D03*
D14*
X129540000Y-66040000D03*
X129540000Y-68580000D03*
X129540000Y-71120000D03*
X129540000Y-73660000D03*
X129540000Y-76200000D03*
X129540000Y-78740000D03*
X129540000Y-81280000D03*
X129540000Y-83820000D03*
X129540000Y-86360000D03*
X129540000Y-88900000D03*
X129540000Y-91440000D03*
X129540000Y-93980000D03*
X129540000Y-96520000D03*
X129540000Y-99060000D03*
X129540000Y-101600000D03*
X129540000Y-104140000D03*
X129540000Y-106680000D03*
X129540000Y-109220000D03*
X129540000Y-111760000D03*
D20*
X142010000Y-63095000D03*
X142010000Y-66045000D03*
X132460000Y-63095000D03*
X132460000Y-66045000D03*
D21*
X143190000Y-68687100D03*
X142240000Y-68687100D03*
X141290000Y-68687100D03*
X141290000Y-70962100D03*
X143190000Y-70962100D03*
D22*
X144340000Y-66045000D03*
X144340000Y-63095000D03*
D23*
X139525000Y-63520000D03*
X137225000Y-63520000D03*
D24*
X137225000Y-69820000D03*
D23*
X134925000Y-63520000D03*
G36*
X142801831Y-91643499D02*
G01*
X142984855Y-91661524D01*
X143008697Y-91666266D01*
X143175921Y-91716993D01*
X143198380Y-91726296D01*
X143352487Y-91808669D01*
X143372698Y-91822174D01*
X143507779Y-91933032D01*
X143524967Y-91950220D01*
X143635825Y-92085301D01*
X143649330Y-92105512D01*
X143731703Y-92259619D01*
X143741006Y-92282078D01*
X143791733Y-92449302D01*
X143796475Y-92473143D01*
X143814501Y-92656167D01*
X143814800Y-92662248D01*
X143814800Y-107921551D01*
X143814501Y-107927632D01*
X143796475Y-108110656D01*
X143791733Y-108134497D01*
X143741006Y-108301721D01*
X143731703Y-108324180D01*
X143649330Y-108478287D01*
X143635825Y-108498498D01*
X143524967Y-108633579D01*
X143507779Y-108650767D01*
X143372698Y-108761625D01*
X143352487Y-108775130D01*
X143198380Y-108857503D01*
X143175921Y-108866806D01*
X143008697Y-108917533D01*
X142984856Y-108922275D01*
X142801832Y-108940301D01*
X142795751Y-108940600D01*
X134013449Y-108940600D01*
X134007368Y-108940301D01*
X133824343Y-108922275D01*
X133800502Y-108917533D01*
X133633278Y-108866806D01*
X133610819Y-108857503D01*
X133456712Y-108775130D01*
X133436501Y-108761625D01*
X133301420Y-108650767D01*
X133284232Y-108633579D01*
X133173374Y-108498498D01*
X133159869Y-108478287D01*
X133077496Y-108324180D01*
X133068193Y-108301721D01*
X133017466Y-108134497D01*
X133012724Y-108110655D01*
X132994699Y-107927631D01*
X132994400Y-107921551D01*
X132994400Y-92662248D01*
X132994699Y-92656168D01*
X133012724Y-92473144D01*
X133017466Y-92449302D01*
X133068193Y-92282078D01*
X133077496Y-92259619D01*
X133159869Y-92105512D01*
X133173374Y-92085301D01*
X133284232Y-91950220D01*
X133301420Y-91933032D01*
X133436501Y-91822174D01*
X133456712Y-91808669D01*
X133610819Y-91726296D01*
X133633278Y-91716993D01*
X133800502Y-91666266D01*
X133824344Y-91661524D01*
X134007369Y-91643499D01*
X134013449Y-91643200D01*
X142795751Y-91643200D01*
X142801831Y-91643499D01*
G37*
%LPD*%
M02*
